<svg width="370" height="370" viewBox="0 0 370 370" fill="none" xmlns="http://www.w3.org/2000/svg">
<ellipse cx="319.241" cy="50.8417" rx="34.7293" ry="34.7929" fill="#3A86FF"/>
<ellipse cx="34.7293" cy="141.17" rx="34.7293" ry="34.7929" fill="#3A86FF"/>
<ellipse cx="235.085" cy="335.88" rx="34.0614" ry="34.1238" fill="#3A86FF"/>
<mask id="path-4-inside-1_265_7" fill="white">
<path fillRule="evenodd" clipRule="evenodd" d="M369.999 167.943C369.999 231.911 334.301 287.526 281.774 315.884C274.019 297.744 256.038 285.036 235.094 285.036C207.381 285.036 184.856 307.285 184.344 334.926C108.163 326.77 47.2426 267.488 36.4351 191.998C63.68 191.098 85.491 168.688 85.491 141.175C85.491 119.207 71.5864 100.492 52.1132 93.3827C79.5285 38.0401 136.512 0 202.364 0C230.272 0 256.588 6.83251 279.735 18.9189C272.697 27.6476 268.482 38.7562 268.482 50.8511C268.482 78.9354 291.207 101.702 319.24 101.702C331.313 101.702 342.401 97.4795 351.114 90.4279C363.179 113.618 369.999 139.982 369.999 167.943ZM202.365 201.393C221.177 201.393 236.426 186.115 236.426 167.269C236.426 148.423 221.177 133.145 202.365 133.145C183.553 133.145 168.304 148.423 168.304 167.269C168.304 186.115 183.553 201.393 202.365 201.393Z"/>
</mask>
<path d="M281.774 315.884L267.981 321.78L274.441 336.889L288.9 329.083L281.774 315.884ZM184.344 334.926L182.747 349.841L199.039 351.585L199.342 335.204L184.344 334.926ZM36.4351 191.998L35.9401 177.006L19.2149 177.558L21.5865 194.123L36.4351 191.998ZM52.1132 93.3827L38.672 86.7243L31.2386 101.73L46.969 107.473L52.1132 93.3827ZM279.735 18.9189L291.412 28.3347L302.897 14.0914L286.678 5.62246L279.735 18.9189ZM351.114 90.4279L364.421 83.5049L355.948 67.2186L341.678 78.7682L351.114 90.4279ZM288.9 329.083C346.092 298.207 384.999 237.631 384.999 167.943H354.999C354.999 226.191 322.51 276.845 274.648 302.685L288.9 329.083ZM235.094 300.036C249.809 300.036 262.498 308.954 267.981 321.78L295.566 309.987C285.54 286.534 262.266 270.036 235.094 270.036V300.036ZM199.342 335.204C199.703 315.697 215.598 300.036 235.094 300.036V270.036C199.165 270.036 170.009 298.874 169.347 334.649L199.342 335.204ZM21.5865 194.123C33.3604 276.364 99.7023 340.95 182.747 349.841L185.941 320.011C116.625 312.59 61.1248 258.612 51.2837 189.872L21.5865 194.123ZM70.491 141.175C70.491 160.594 55.1001 176.373 35.9401 177.006L36.93 206.989C72.2599 205.823 100.491 176.782 100.491 141.175H70.491ZM46.969 107.473C60.7004 112.486 70.491 125.693 70.491 141.175H100.491C100.491 112.72 82.4724 88.4982 57.2575 79.2924L46.969 107.473ZM202.364 -15C130.583 -15 68.5156 26.4797 38.672 86.7243L65.5544 100.041C90.5414 49.6005 142.441 15 202.364 15V-15ZM286.678 5.62246C261.44 -7.55599 232.748 -15 202.364 -15V15C227.797 15 251.737 21.221 272.792 32.2154L286.678 5.62246ZM283.482 50.8511C283.482 42.3023 286.447 34.4913 291.412 28.3347L268.059 9.50324C258.946 20.8039 253.482 35.2102 253.482 50.8511H283.482ZM319.24 86.7023C299.517 86.7023 283.482 70.6771 283.482 50.8511H253.482C253.482 87.1938 282.897 116.702 319.24 116.702V86.7023ZM341.678 78.7682C335.536 83.7391 327.752 86.7023 319.24 86.7023V116.702C334.874 116.702 349.267 111.22 360.551 102.088L341.678 78.7682ZM384.999 167.943C384.999 137.516 377.572 108.783 364.421 83.5049L337.807 97.351C348.786 118.453 354.999 142.448 354.999 167.943H384.999ZM221.426 167.269C221.426 177.857 212.866 186.393 202.365 186.393V216.393C229.487 216.393 251.426 194.373 251.426 167.269H221.426ZM202.365 148.145C212.866 148.145 221.426 156.681 221.426 167.269H251.426C251.426 140.164 229.487 118.145 202.365 118.145V148.145ZM183.304 167.269C183.304 156.681 191.864 148.145 202.365 148.145V118.145C175.243 118.145 153.304 140.164 153.304 167.269H183.304ZM202.365 186.393C191.864 186.393 183.304 177.857 183.304 167.269H153.304C153.304 194.373 175.243 216.393 202.365 216.393V186.393Z" fill="#3A86FF" mask="url(#path-4-inside-1_265_7)"/>
</svg>
