<svg width="234" height="51" viewBox="0 0 234 51" fill="none" xmlns="http://www.w3.org/2000/svg">
<g clip-path="url(#clip0_1_113)">
<path d="M229.048 1H4.95247C2.55924 1 0.619141 2.95875 0.619141 5.375V45.375C0.619141 47.7912 2.55924 49.75 4.95247 49.75H229.048C231.441 49.75 233.381 47.7912 233.381 45.375V5.375C233.381 2.95875 231.441 1 229.048 1Z" fill="white"/>
<mask id="mask0_1_113" style="mask-type:luminance" maskUnits="userSpaceOnUse" x="14" y="12" width="26" height="26">
<path d="M39.6191 12.875H14.8572V37.875H39.6191V12.875Z" fill="white"/>
</mask>
<g mask="url(#mask0_1_113)">
<path d="M39.1238 25.6591C39.1238 24.7727 39.045 23.9205 38.8987 23.1022H27.238V27.9375H33.9012C33.6142 29.5 32.742 30.8239 31.4307 31.7102V34.8466H35.432C37.7731 32.6705 39.1238 29.4659 39.1238 25.6591Z" fill="#4285F4"/>
<path d="M27.2382 37.875C30.581 37.875 33.3836 36.7556 35.432 34.8466L31.4307 31.7102C30.3222 32.4602 28.9039 32.9034 27.2382 32.9034C24.0134 32.9034 21.2841 30.7045 20.3104 27.75H16.1741V30.9886C18.2114 35.0739 22.3983 37.875 27.2382 37.875Z" fill="#34A853"/>
<path d="M20.3104 27.75C20.0627 27 19.9221 26.1989 19.9221 25.375C19.9221 24.5511 20.0627 23.75 20.3104 23V19.7614H16.174C15.3356 21.4489 14.8572 23.358 14.8572 25.375C14.8572 27.392 15.3356 29.3011 16.174 30.9886L20.3104 27.75Z" fill="#FBBC04"/>
<path d="M27.2382 17.8466C29.0558 17.8466 30.6879 18.4773 31.9711 19.7159L35.5222 16.1306C33.378 14.1136 30.5753 12.875 27.2382 12.875C22.3983 12.875 18.2114 15.6761 16.1741 19.7614L20.3104 23C21.2841 20.0455 24.0134 17.8466 27.2382 17.8466Z" fill="#E94235"/>
</g>
<path d="M60.5312 27.5747H62.6471C62.5794 28.3894 62.3537 29.1156 61.97 29.7536C61.5863 30.386 61.0475 30.8845 60.3535 31.249C59.6594 31.6136 58.8159 31.7959 57.8228 31.7959C57.0612 31.7959 56.3756 31.6591 55.7662 31.3857C55.1569 31.1066 54.635 30.7135 54.2004 30.2065C53.766 29.6939 53.4332 29.0757 53.2018 28.3522C52.9761 27.6289 52.8633 26.8199 52.8633 25.9255V24.8916C52.8633 23.9973 52.9789 23.1884 53.2102 22.4649C53.4472 21.7414 53.7858 21.1232 54.2259 20.6106C54.6659 20.0922 55.1935 19.6963 55.8086 19.4229C56.4292 19.1494 57.126 19.0128 57.899 19.0128C58.8808 19.0128 59.7102 19.195 60.3873 19.5596C61.0644 19.9241 61.5891 20.4283 61.9615 21.072C62.3395 21.7157 62.5709 22.4535 62.6555 23.2851H60.5397C60.4833 22.7496 60.3591 22.2911 60.1673 21.9094C59.9811 21.5278 59.7046 21.2373 59.3379 21.0379C58.9711 20.8328 58.4915 20.7303 57.899 20.7303C57.4138 20.7303 56.9906 20.8214 56.6296 21.0036C56.2684 21.186 55.9666 21.4538 55.7239 21.8069C55.4812 22.1601 55.2979 22.5959 55.1738 23.1143C55.0553 23.627 54.996 24.2137 54.996 24.8745V25.9255C54.996 26.5521 55.0496 27.1219 55.1569 27.6345C55.2698 28.1415 55.439 28.5773 55.6647 28.9419C55.896 29.3065 56.1894 29.5885 56.5449 29.7879C56.9003 29.9873 57.3264 30.0869 57.8228 30.0869C58.4267 30.0869 58.9147 29.9901 59.287 29.7964C59.6651 29.6027 59.95 29.3207 60.1419 28.9505C60.3394 28.5745 60.4691 28.1159 60.5312 27.5747ZM63.9843 27.1048V26.9083C63.9843 26.2418 64.0803 25.6236 64.2721 25.054C64.464 24.4786 64.7405 23.9801 65.1015 23.5586C65.4683 23.1314 65.914 22.801 66.4387 22.5674C66.9691 22.3281 67.5673 22.2085 68.233 22.2085C68.9044 22.2085 69.5025 22.3281 70.0272 22.5674C70.5576 22.801 71.0062 23.1314 71.3731 23.5586C71.7398 23.9801 72.0191 24.4786 72.2109 25.054C72.4028 25.6236 72.4986 26.2418 72.4986 26.9083V27.1048C72.4986 27.7713 72.4028 28.3894 72.2109 28.959C72.0191 29.5286 71.7398 30.0271 71.3731 30.4544C71.0062 30.8759 70.5605 31.2062 70.0358 31.4455C69.5111 31.6791 68.9158 31.7959 68.25 31.7959C67.5785 31.7959 66.9776 31.6791 66.4472 31.4455C65.9225 31.2062 65.4767 30.8759 65.11 30.4544C64.7432 30.0271 64.464 29.5286 64.2721 28.959C64.0803 28.3894 63.9843 27.7713 63.9843 27.1048ZM66.024 26.9083V27.1048C66.024 27.5206 66.0663 27.9136 66.151 28.2839C66.2356 28.6543 66.3682 28.9789 66.5488 29.258C66.7293 29.5372 66.9607 29.7565 67.2428 29.916C67.5249 30.0755 67.8606 30.1552 68.25 30.1552C68.6279 30.1552 68.9553 30.0755 69.2318 29.916C69.5138 29.7565 69.7452 29.5372 69.9257 29.258C70.1062 28.9789 70.2388 28.6543 70.3235 28.2839C70.4138 27.9136 70.459 27.5206 70.459 27.1048V26.9083C70.459 26.498 70.4138 26.1106 70.3235 25.7461C70.2388 25.3759 70.1035 25.0483 69.9173 24.7634C69.7367 24.4786 69.5054 24.2564 69.2232 24.0969C68.9468 23.9318 68.6167 23.8491 68.233 23.8491C67.8493 23.8491 67.5165 23.9318 67.2343 24.0969C66.9579 24.2564 66.7293 24.4786 66.5488 24.7634C66.3682 25.0483 66.2356 25.3759 66.151 25.7461C66.0663 26.1106 66.024 26.498 66.024 26.9083ZM76.2311 24.3533V31.625H74.1913V22.3794H76.1126L76.2311 24.3533ZM75.8671 26.6604L75.2069 26.6519C75.2126 25.9967 75.3029 25.3957 75.4778 24.8489C75.6583 24.302 75.9066 23.832 76.2227 23.439C76.5442 23.0459 76.9279 22.744 77.3736 22.5333C77.8194 22.3168 78.3159 22.2085 78.8633 22.2085C79.3033 22.2085 79.7011 22.2711 80.0566 22.3965C80.4177 22.5161 80.7252 22.7126 80.9791 22.9861C81.2387 23.2595 81.4362 23.6155 81.5716 24.0542C81.7069 24.4871 81.7747 25.0198 81.7747 25.6521V31.625H79.7265V25.6435C79.7265 25.1992 79.6616 24.8489 79.5318 24.5925C79.4077 24.3305 79.2243 24.1454 78.9818 24.0371C78.7448 23.9231 78.4485 23.8662 78.0931 23.8662C77.7432 23.8662 77.4301 23.9402 77.1536 24.0884C76.8771 24.2365 76.643 24.4388 76.4511 24.6951C76.2649 24.9514 76.121 25.2476 76.0195 25.5837C75.918 25.9199 75.8671 26.2787 75.8671 26.6604ZM88.0547 22.3794V23.8833H82.8919V22.3794H88.0547ZM84.3815 20.115H86.4212V29.0701C86.4212 29.3549 86.4607 29.5743 86.5397 29.728C86.6243 29.8761 86.7399 29.9759 86.8866 30.0271C87.0333 30.0784 87.2054 30.104 87.4029 30.104C87.5441 30.104 87.6794 30.0955 87.8093 30.0784C87.939 30.0612 88.0434 30.0443 88.1224 30.0271L88.1308 31.5994C87.9615 31.6506 87.7641 31.6962 87.5384 31.7361C87.3184 31.776 87.0644 31.7959 86.7767 31.7959C86.3083 31.7959 85.8937 31.7132 85.5325 31.5481C85.1714 31.3772 84.8893 31.1009 84.6862 30.7192C84.483 30.3376 84.3815 29.8306 84.3815 29.1982V20.115ZM91.8124 22.3794V31.625H89.7643V22.3794H91.8124ZM89.6289 19.9526C89.6289 19.6394 89.7304 19.3801 89.9336 19.175C90.1423 18.9642 90.4301 18.8589 90.7968 18.8589C91.1579 18.8589 91.4428 18.9642 91.6517 19.175C91.8604 19.3801 91.9648 19.6394 91.9648 19.9526C91.9648 20.2602 91.8604 20.5166 91.6517 20.7216C91.4428 20.9267 91.1579 21.0292 90.7968 21.0292C90.4301 21.0292 90.1423 20.9267 89.9336 20.7216C89.7304 20.5166 89.6289 20.2602 89.6289 19.9526ZM96.0696 24.3533V31.625H94.0299V22.3794H95.9511L96.0696 24.3533ZM95.7057 26.6604L95.0456 26.6519C95.0511 25.9967 95.1415 25.3957 95.3163 24.8489C95.497 24.302 95.7452 23.832 96.0612 23.439C96.3828 23.0459 96.7665 22.744 97.2122 22.5333C97.6579 22.3168 98.1544 22.2085 98.7018 22.2085C99.1419 22.2085 99.5397 22.2711 99.8952 22.3965C100.256 22.5161 100.564 22.7126 100.818 22.9861C101.077 23.2595 101.275 23.6155 101.41 24.0542C101.546 24.4871 101.613 25.0198 101.613 25.6521V31.625H99.5651V25.6435C99.5651 25.1992 99.5002 24.8489 99.3703 24.5925C99.2463 24.3305 99.0629 24.1454 98.8203 24.0371C98.5833 23.9231 98.287 23.8662 97.9316 23.8662C97.5818 23.8662 97.2687 23.9402 96.9921 24.0884C96.7156 24.2365 96.4815 24.4388 96.2897 24.6951C96.1035 24.9514 95.9596 25.2476 95.858 25.5837C95.7565 25.9199 95.7057 26.2787 95.7057 26.6604ZM109.205 29.446V22.3794H111.253V31.625H109.324L109.205 29.446ZM109.493 27.5235L110.178 27.5064C110.178 28.1272 110.111 28.6997 109.975 29.2239C109.84 29.7422 109.631 30.1951 109.349 30.5825C109.067 30.9643 108.706 31.2633 108.266 31.4798C107.825 31.6905 107.298 31.7959 106.683 31.7959C106.237 31.7959 105.828 31.7304 105.456 31.5994C105.083 31.4684 104.762 31.2661 104.491 30.9926C104.226 30.7193 104.02 30.3633 103.873 29.9245C103.726 29.4859 103.653 28.9619 103.653 28.3522V22.3794H105.693V28.3694C105.693 28.7055 105.732 28.9875 105.811 29.2154C105.89 29.4375 105.997 29.617 106.133 29.7536C106.268 29.8904 106.426 29.9872 106.607 30.0442C106.787 30.1011 106.979 30.1296 107.182 30.1296C107.763 30.1296 108.22 30.0157 108.553 29.7879C108.892 29.5542 109.132 29.241 109.273 28.8479C109.419 28.4549 109.493 28.0134 109.493 27.5235ZM117.381 31.7959C116.704 31.7959 116.092 31.6849 115.544 31.4626C115.003 31.2347 114.54 30.9186 114.156 30.5141C113.778 30.1097 113.488 29.634 113.284 29.0871C113.081 28.5402 112.98 27.9506 112.98 27.3184V26.9765C112.98 26.2531 113.084 25.598 113.293 25.0112C113.502 24.4245 113.792 23.9231 114.165 23.5074C114.537 23.0857 114.977 22.7639 115.485 22.5418C115.993 22.3196 116.543 22.2085 117.135 22.2085C117.79 22.2085 118.363 22.3196 118.854 22.5418C119.344 22.7639 119.751 23.0772 120.072 23.4817C120.4 23.8805 120.642 24.3561 120.8 24.9088C120.964 25.4613 121.046 26.0707 121.046 26.7372V27.6174H113.97V26.1391H119.031V25.9767C119.02 25.6065 118.947 25.259 118.811 24.9344C118.681 24.6096 118.481 24.3476 118.21 24.1483C117.939 23.9488 117.578 23.8491 117.127 23.8491C116.788 23.8491 116.487 23.9231 116.221 24.0713C115.962 24.2138 115.745 24.4216 115.57 24.6951C115.395 24.9685 115.259 25.2989 115.163 25.6863C115.073 26.068 115.028 26.498 115.028 26.9765V27.3184C115.028 27.7229 115.082 28.0988 115.189 28.4463C115.302 28.7881 115.465 29.0871 115.68 29.3435C115.894 29.5999 116.154 29.8021 116.458 29.9503C116.763 30.0926 117.11 30.1639 117.499 30.1639C117.99 30.1639 118.427 30.0641 118.811 29.8648C119.195 29.6654 119.528 29.3834 119.81 29.0188L120.885 30.0699C120.687 30.3604 120.43 30.6395 120.115 30.9073C119.799 31.1693 119.412 31.3829 118.955 31.5481C118.504 31.7132 117.979 31.7959 117.381 31.7959ZM129.442 29.5742L131.557 22.3794H132.861L132.505 24.5328L130.373 31.625H129.204L129.442 29.5742ZM128.197 22.3794L129.848 29.6084L129.983 31.625H128.68L126.2 22.3794H128.197ZM134.841 29.523L136.441 22.3794H138.43L135.958 31.625H134.655L134.841 29.523ZM133.08 22.3794L135.171 29.4888L135.434 31.625H134.265L132.107 24.5241L131.752 22.3794H133.08ZM142.001 22.3794V31.625H139.953V22.3794H142.001ZM139.818 19.9526C139.818 19.6394 139.92 19.3801 140.123 19.175C140.331 18.9642 140.619 18.8589 140.986 18.8589C141.347 18.8589 141.632 18.9642 141.84 19.175C142.049 19.3801 142.153 19.6394 142.153 19.9526C142.153 20.2602 142.049 20.5166 141.84 20.7216C141.632 20.9267 141.347 21.0292 140.986 21.0292C140.619 21.0292 140.331 20.9267 140.123 20.7216C139.92 20.5166 139.818 20.2602 139.818 19.9526ZM148.434 22.3794V23.8833H143.271V22.3794H148.434ZM144.761 20.115H146.8V29.0701C146.8 29.3549 146.839 29.5743 146.919 29.728C147.003 29.8761 147.119 29.9759 147.265 30.0271C147.413 30.0784 147.585 30.104 147.781 30.104C147.923 30.104 148.059 30.0955 148.188 30.0784C148.318 30.0612 148.423 30.0443 148.501 30.0271L148.509 31.5994C148.34 31.6506 148.143 31.6962 147.918 31.7361C147.697 31.776 147.443 31.7959 147.155 31.7959C146.687 31.7959 146.272 31.7132 145.912 31.5481C145.55 31.3772 145.268 31.1009 145.065 30.7192C144.862 30.3376 144.761 29.8306 144.761 29.1982V20.115ZM152.022 18.5V31.625H149.99V18.5H152.022ZM151.667 26.6604L151.007 26.6519C151.012 26.0139 151.1 25.4242 151.269 24.883C151.444 24.3419 151.686 23.8719 151.997 23.4731C152.313 23.0686 152.691 22.7583 153.131 22.5418C153.571 22.3196 154.059 22.2085 154.595 22.2085C155.047 22.2085 155.453 22.2711 155.814 22.3965C156.181 22.5218 156.496 22.724 156.761 23.0031C157.026 23.2766 157.227 23.6355 157.363 24.0799C157.504 24.5185 157.574 25.054 157.574 25.6863V31.625H155.526V25.6692C155.526 25.2249 155.461 24.8716 155.331 24.6096C155.208 24.3476 155.024 24.1596 154.782 24.0456C154.539 23.926 154.242 23.8662 153.893 23.8662C153.526 23.8662 153.202 23.9402 152.92 24.0884C152.642 24.2365 152.412 24.4388 152.225 24.6951C152.039 24.9514 151.898 25.2476 151.802 25.5837C151.711 25.9199 151.667 26.2787 151.667 26.6604ZM173.621 25.2676V30.0185C173.446 30.2521 173.172 30.5085 172.8 30.7876C172.433 31.061 171.945 31.2975 171.336 31.4969C170.727 31.6962 169.968 31.7959 169.059 31.7959C168.287 31.7959 167.579 31.6649 166.935 31.4029C166.291 31.1351 165.736 30.7449 165.267 30.2321C164.805 29.7195 164.446 29.0958 164.192 28.3609C163.939 27.6203 163.812 26.7771 163.812 25.8315V24.9685C163.812 24.0286 163.927 23.1911 164.159 22.4563C164.395 21.7158 164.735 21.0891 165.174 20.5764C165.615 20.0638 166.145 19.6764 166.765 19.4142C167.392 19.1466 168.1 19.0128 168.89 19.0128C169.9 19.0128 170.735 19.1836 171.396 19.5254C172.061 19.8615 172.574 20.3286 172.936 20.9268C173.296 21.5249 173.525 22.2085 173.621 22.9775H171.539C171.471 22.5446 171.339 22.1572 171.141 21.8154C170.95 21.4736 170.673 21.2059 170.312 21.0122C169.956 20.8129 169.494 20.7131 168.923 20.7131C168.433 20.7131 168.001 20.8071 167.629 20.9951C167.257 21.1831 166.946 21.4594 166.698 21.824C166.456 22.1885 166.272 22.6329 166.147 23.157C166.024 23.6811 165.962 24.2793 165.962 24.9514V25.8315C165.962 26.5151 166.032 27.1219 166.173 27.6516C166.319 28.1814 166.529 28.6286 166.8 28.9931C167.076 29.3578 167.411 29.634 167.806 29.822C168.201 30.0044 168.647 30.0955 169.144 30.0955C169.629 30.0955 170.026 30.0556 170.337 29.9759C170.648 29.8904 170.893 29.7908 171.074 29.6768C171.259 29.5571 171.403 29.4432 171.505 29.335V26.8655H168.941V25.2676H173.621ZM175.381 27.1048V26.9083C175.381 26.2418 175.478 25.6236 175.67 25.054C175.861 24.4786 176.138 23.9801 176.499 23.5586C176.866 23.1314 177.311 22.801 177.836 22.5674C178.366 22.3281 178.964 22.2085 179.63 22.2085C180.301 22.2085 180.899 22.3281 181.424 22.5674C181.955 22.801 182.404 23.1314 182.77 23.5586C183.137 23.9801 183.416 24.4786 183.608 25.054C183.8 25.6236 183.895 26.2418 183.895 26.9083V27.1048C183.895 27.7713 183.8 28.3894 183.608 28.959C183.416 29.5286 183.137 30.0271 182.77 30.4544C182.404 30.8759 181.958 31.2062 181.433 31.4455C180.908 31.6791 180.312 31.7959 179.648 31.7959C178.975 31.7959 178.375 31.6791 177.845 31.4455C177.32 31.2062 176.874 30.8759 176.507 30.4544C176.14 30.0271 175.861 29.5286 175.67 28.959C175.478 28.3894 175.381 27.7713 175.381 27.1048ZM177.421 26.9083V27.1048C177.421 27.5206 177.464 27.9136 177.548 28.2839C177.633 28.6543 177.766 28.9789 177.946 29.258C178.126 29.5372 178.357 29.7565 178.64 29.916C178.922 30.0755 179.258 30.1552 179.648 30.1552C180.025 30.1552 180.352 30.0755 180.629 29.916C180.91 29.7565 181.142 29.5372 181.323 29.258C181.503 28.9789 181.636 28.6543 181.72 28.2839C181.811 27.9136 181.856 27.5206 181.856 27.1048V26.9083C181.856 26.498 181.811 26.1106 181.72 25.7461C181.636 25.3759 181.501 25.0483 181.314 24.7634C181.133 24.4786 180.903 24.2564 180.621 24.0969C180.343 23.9318 180.014 23.8491 179.63 23.8491C179.246 23.8491 178.913 23.9318 178.631 24.0969C178.355 24.2564 178.126 24.4786 177.946 24.7634C177.766 25.0483 177.633 25.3759 177.548 25.7461C177.464 26.1106 177.421 26.498 177.421 26.9083ZM185.217 27.1048V26.9083C185.217 26.2418 185.312 25.6236 185.504 25.054C185.696 24.4786 185.972 23.9801 186.333 23.5586C186.7 23.1314 187.145 22.801 187.67 22.5674C188.2 22.3281 188.8 22.2085 189.464 22.2085C190.137 22.2085 190.735 22.3281 191.26 22.5674C191.79 22.801 192.238 23.1314 192.604 23.5586C192.972 23.9801 193.251 24.4786 193.442 25.054C193.634 25.6236 193.731 26.2418 193.731 26.9083V27.1048C193.731 27.7713 193.634 28.3894 193.442 28.959C193.251 29.5286 192.972 30.0271 192.604 30.4544C192.238 30.8759 191.792 31.2062 191.267 31.4455C190.743 31.6791 190.148 31.7959 189.482 31.7959C188.811 31.7959 188.209 31.6791 187.679 31.4455C187.154 31.2062 186.708 30.8759 186.342 30.4544C185.975 30.0271 185.696 29.5286 185.504 28.959C185.312 28.3894 185.217 27.7713 185.217 27.1048ZM187.256 26.9083V27.1048C187.256 27.5206 187.298 27.9136 187.383 28.2839C187.467 28.6543 187.6 28.9789 187.781 29.258C187.961 29.5372 188.193 29.7565 188.474 29.916C188.756 30.0755 189.093 30.1552 189.482 30.1552C189.859 30.1552 190.187 30.0755 190.464 29.916C190.746 29.7565 190.977 29.5372 191.157 29.258C191.338 28.9789 191.47 28.6543 191.556 28.2839C191.646 27.9136 191.691 27.5206 191.691 27.1048V26.9083C191.691 26.498 191.646 26.1106 191.556 25.7461C191.47 25.3759 191.335 25.0483 191.149 24.7634C190.969 24.4786 190.737 24.2564 190.455 24.0969C190.179 23.9318 189.848 23.8491 189.464 23.8491C189.081 23.8491 188.749 23.9318 188.467 24.0969C188.189 24.2564 187.961 24.4786 187.781 24.7634C187.6 25.0483 187.467 25.3759 187.383 25.7461C187.298 26.1106 187.256 26.498 187.256 26.9083ZM201.306 22.3794H203.159V31.3686C203.159 32.2004 202.984 32.9067 202.634 33.4878C202.284 34.0689 201.796 34.5104 201.169 34.8123C200.544 35.1199 199.819 35.2736 198.995 35.2736C198.645 35.2736 198.256 35.2224 197.827 35.1199C197.403 35.0174 196.992 34.8521 196.591 34.6243C196.196 34.4021 195.867 34.1087 195.6 33.7441L196.557 32.5308C196.884 32.9239 197.246 33.2115 197.641 33.3938C198.036 33.5761 198.451 33.6673 198.885 33.6673C199.353 33.6673 199.751 33.579 200.079 33.4024C200.41 33.2315 200.668 32.978 200.849 32.6419C201.028 32.3057 201.119 31.8956 201.119 31.4114V24.4729L201.306 22.3794ZM195.084 27.1048V26.9253C195.084 26.2246 195.17 25.5866 195.338 25.0112C195.508 24.4301 195.75 23.9317 196.066 23.5159C196.383 23.0944 196.765 22.7725 197.217 22.5503C197.669 22.3224 198.179 22.2085 198.749 22.2085C199.342 22.2085 199.847 22.3168 200.264 22.5333C200.688 22.7496 201.041 23.0601 201.322 23.4646C201.604 23.8634 201.824 24.3419 201.983 24.9001C202.146 25.4528 202.268 26.068 202.347 26.7459V27.3184C202.273 27.9791 202.149 28.583 201.974 29.1299C201.8 29.6768 201.568 30.1496 201.28 30.5484C200.992 30.9471 200.637 31.2548 200.214 31.4713C199.796 31.6876 199.302 31.7959 198.733 31.7959C198.173 31.7959 197.669 31.6791 197.217 31.4455C196.772 31.212 196.388 30.8845 196.066 30.4629C195.75 30.0414 195.508 29.5457 195.338 28.9761C195.17 28.4007 195.084 27.7769 195.084 27.1048ZM197.125 26.9253V27.1048C197.125 27.5263 197.164 27.9194 197.243 28.2839C197.328 28.6485 197.454 28.9704 197.623 29.2495C197.798 29.523 198.018 29.7394 198.283 29.8989C198.555 30.0528 198.874 30.1296 199.24 30.1296C199.72 30.1296 200.112 30.0271 200.417 29.822C200.727 29.617 200.964 29.3406 201.127 28.9931C201.297 28.64 201.416 28.2469 201.483 27.814V26.2674C201.449 25.9312 201.379 25.6179 201.271 25.3274C201.169 25.0369 201.032 24.7834 200.856 24.5669C200.682 24.3448 200.461 24.1739 200.196 24.0542C199.931 23.9289 199.618 23.8662 199.257 23.8662C198.89 23.8662 198.572 23.946 198.301 24.1055C198.03 24.265 197.807 24.4843 197.632 24.7634C197.463 25.0425 197.336 25.3673 197.251 25.7375C197.167 26.1079 197.125 26.5037 197.125 26.9253ZM207.458 18.5V31.625H205.41V18.5H207.458ZM213.73 31.7959C213.053 31.7959 212.441 31.6849 211.894 31.4626C211.351 31.2347 210.888 30.9186 210.505 30.5141C210.127 30.1097 209.836 29.634 209.633 29.0871C209.43 28.5402 209.328 27.9506 209.328 27.3184V26.9765C209.328 26.2531 209.434 25.598 209.642 25.0112C209.851 24.4245 210.141 23.9231 210.513 23.5074C210.886 23.0857 211.327 22.7639 211.834 22.5418C212.342 22.3196 212.892 22.2085 213.485 22.2085C214.138 22.2085 214.712 22.3196 215.202 22.5418C215.693 22.7639 216.1 23.0772 216.421 23.4817C216.748 23.8805 216.991 24.3561 217.149 24.9088C217.313 25.4613 217.395 26.0707 217.395 26.7372V27.6174H210.319V26.1391H215.38V25.9767C215.369 25.6065 215.296 25.259 215.16 24.9344C215.03 24.6096 214.831 24.3476 214.559 24.1483C214.288 23.9488 213.927 23.8491 213.476 23.8491C213.137 23.8491 212.836 23.9231 212.57 24.0713C212.311 24.2138 212.093 24.4216 211.919 24.6951C211.744 24.9685 211.608 25.2989 211.512 25.6863C211.422 26.068 211.377 26.498 211.377 26.9765V27.3184C211.377 27.7229 211.431 28.0988 211.537 28.4463C211.651 28.7881 211.815 29.0871 212.029 29.3435C212.243 29.5999 212.503 29.8021 212.807 29.9503C213.112 30.0926 213.459 30.1639 213.849 30.1639C214.339 30.1639 214.776 30.0641 215.16 29.8648C215.544 29.6654 215.877 29.3834 216.159 29.0188L217.234 30.0699C217.037 30.3604 216.779 30.6395 216.464 30.9073C216.148 31.1693 215.762 31.3829 215.303 31.5481C214.853 31.7132 214.328 31.7959 213.73 31.7959Z" fill="#1F1F1F"/>
<path d="M229.048 1H4.95247C2.55924 1 0.619141 2.95875 0.619141 5.375V45.375C0.619141 47.7912 2.55924 49.75 4.95247 49.75H229.048C231.441 49.75 233.381 47.7912 233.381 45.375V5.375C233.381 2.95875 231.441 1 229.048 1Z" stroke="#747775"/>
</g>
<defs>
<clipPath id="clip0_1_113">
<rect width="234" height="50" fill="white" transform="translate(0 0.375)"/>
</clipPath>
</defs>
</svg>
