<svg width="1177" height="965" viewBox="0 0 1177 965" fill="none" xmlns="http://www.w3.org/2000/svg">
<path d="M322.789 245.998C328.83 260.951 321.602 277.981 306.629 284.031C291.657 290.08 274.627 282.85 268.586 267.898C262.545 252.945 269.773 235.914 284.745 229.865C299.717 223.816 316.747 231.046 322.789 245.998ZM314.871 304.429C341.099 293.832 353.783 263.985 343.187 237.757C332.59 211.529 302.732 198.87 276.504 209.467C250.275 220.064 237.591 249.911 248.188 276.139C258.785 302.367 288.642 315.026 314.871 304.429ZM400.121 66.7912C406.326 82.1475 398.903 99.6376 383.526 105.85C368.15 112.063 350.66 104.638 344.456 89.2815C338.252 73.9251 345.675 56.435 361.051 50.2226C376.428 44.0101 393.917 51.4349 400.121 66.7912ZM128.429 291.362C134.634 306.718 127.211 324.208 111.834 330.421C96.4579 336.633 78.9684 329.208 72.7641 313.852C66.5597 298.496 73.9829 281.005 89.3593 274.793C104.736 268.581 122.225 276.005 128.429 291.362ZM433.055 415.734C439.096 430.686 431.868 447.717 416.896 453.766C401.923 459.815 384.894 452.586 378.852 437.633C372.811 422.68 380.039 405.65 395.011 399.601C409.984 393.551 427.014 400.781 433.055 415.734ZM469.359 187.629C494.551 249.982 483.695 317.97 446.544 368.498C427.554 355.287 402.465 351.605 379.386 360.93C347.359 373.869 329.916 407.529 336.291 440.208C260.948 456.959 182.794 425.235 140.328 361.369C167.504 343.036 179.144 307.636 166.375 276.03C156.566 251.753 134.849 235.885 110.696 232.395C119.548 168.195 161.581 110.407 225.969 84.3921C250.827 74.3492 276.551 70.0306 301.701 70.8049C300.548 81.9437 302.021 93.522 306.503 104.617C321.178 140.938 362.527 158.471 398.854 143.794C409.956 139.309 419.314 132.323 426.531 123.753C444.56 141.294 459.321 162.785 469.359 187.629Z" stroke="white" stroke-width="22"/>
<rect x="335.642" y="64.8877" width="57" height="57" rx="28.5" transform="rotate(-22 335.642 64.8877)" fill="white"/>
<rect x="365.991" y="409.621" width="57" height="57" rx="28.5" transform="rotate(-22 365.991 409.621)" fill="white"/>
<rect x="63.6201" y="285.881" width="57" height="57" rx="28.5" transform="rotate(-22 63.6201 285.881)" fill="white"/>
<path d="M385.79 702.874C400.358 704.148 411.142 716.999 409.866 731.586C408.59 746.173 395.738 756.956 381.17 755.682C366.602 754.407 355.818 741.556 357.094 726.969C358.37 712.382 371.222 701.599 385.79 702.874ZM429.739 733.325C431.975 707.771 413.082 685.236 387.529 683.001C361.976 680.765 339.457 699.677 337.221 725.231C334.985 750.784 353.878 773.319 379.431 775.555C404.984 777.79 427.503 758.878 429.739 733.325ZM272.836 566.619C287.797 567.928 298.873 581.126 297.562 596.107C296.251 611.087 283.053 622.161 268.091 620.852C253.13 619.543 242.055 606.346 243.366 591.365C244.676 576.384 257.875 565.311 272.836 566.619ZM342.43 878.58C357.391 879.888 368.466 893.086 367.155 908.067C365.845 923.047 352.646 934.121 337.685 932.813C322.724 931.504 311.649 918.306 312.959 903.325C314.27 888.345 327.468 877.271 342.43 878.58ZM568.32 683.659C582.888 684.934 593.672 697.785 592.396 712.372C591.119 726.959 578.268 737.742 563.7 736.467C549.132 735.193 538.348 722.342 539.624 707.755C540.9 693.168 553.752 682.385 568.32 683.659ZM398.969 560.425C459.717 565.74 510.179 602.499 535.709 653.315C517.217 663.22 503.914 681.974 501.947 704.46C499.217 735.663 519.232 763.612 548.259 771.914C530.777 839.683 472.972 889.767 403.89 897.786C400.265 868.282 376.456 844.304 345.664 841.61C322.011 839.541 300.25 850.554 287.488 868.633C239.262 835.051 209.876 777.302 215.364 714.57C217.483 690.353 224.584 667.791 235.563 647.79C244.087 653.307 254.048 656.884 264.857 657.829C300.244 660.925 331.432 634.735 334.529 599.343C335.475 588.527 333.683 578.09 329.73 568.731C351.324 561.386 374.764 558.307 398.969 560.425Z" stroke="white" stroke-width="19.9491"/>
<rect x="244.754" y="617.932" width="51.6862" height="51.6862" rx="25.8431" transform="rotate(-85 244.754 617.932)" fill="white"/>
<rect x="535.773" y="735.326" width="51.6862" height="51.6862" rx="25.8431" transform="rotate(-85 535.773 735.326)" fill="white"/>
<rect x="311.321" y="928.687" width="51.6862" height="51.6862" rx="25.8431" transform="rotate(-85 311.321 928.687)" fill="white"/>
<path d="M880.808 465.709C871.527 483.164 849.839 489.796 832.361 480.502C814.883 471.209 808.253 449.521 817.534 432.066C826.815 414.611 848.503 407.979 865.981 417.272C883.459 426.565 890.089 448.254 880.808 465.709ZM819.7 504.314C850.318 520.594 888.34 508.987 904.619 478.37C920.899 447.753 909.26 409.74 878.642 393.46C848.024 377.181 810.002 388.788 793.722 419.405C777.443 450.022 789.082 488.034 819.7 504.314ZM1110.03 397.121C1100.49 415.047 1078.22 421.858 1060.27 412.314C1042.32 402.77 1035.51 380.496 1045.04 362.57C1054.58 344.644 1076.85 337.833 1094.8 347.377C1112.75 356.921 1119.56 379.195 1110.03 397.121ZM685.064 318.941C675.532 336.867 653.259 343.678 635.309 334.134C617.36 324.59 610.551 302.316 620.083 284.39C629.614 266.464 651.887 259.653 669.837 269.197C687.787 278.741 694.595 301.015 685.064 318.941ZM808.303 702.997C799.022 720.452 777.334 727.084 759.856 717.791C742.378 708.498 735.749 686.809 745.03 669.354C754.31 651.899 775.998 645.268 793.476 654.561C810.954 663.854 817.584 685.543 808.303 702.997ZM1051.11 557.352C1012.41 630.14 940.009 673.518 863.289 678.445C860.731 650.202 844.42 623.742 817.478 609.417C780.091 589.538 734.739 599.681 709.075 631.417C633.979 573.865 602.187 475.477 628.7 385.277C667.328 396.35 709.743 379.388 729.36 342.493C744.429 314.152 742.218 281.256 726.462 255.825C793.725 213.551 881.11 207.488 956.274 247.453C985.291 262.882 1009.62 283.635 1028.71 307.863C1017.34 315.556 1007.63 326.062 1000.74 339.014C978.195 381.413 994.312 434.058 1036.72 456.606C1049.68 463.497 1063.61 466.78 1077.35 466.804C1075.08 497.555 1066.53 528.351 1051.11 557.352Z" stroke="white" stroke-width="26.9684"/>
<rect x="1061.01" y="335.072" width="69.8727" height="69.8727" rx="34.9364" transform="rotate(28 1061.01 335.072)" fill="white"/>
<rect x="761.201" y="635.205" width="69.8727" height="69.8727" rx="34.9364" transform="rotate(28 761.201 635.205)" fill="white"/>
<rect x="639.144" y="253.764" width="69.8727" height="69.8727" rx="34.9364" transform="rotate(28 639.144 253.764)" fill="white"/>
</svg>
