<svg width="32" height="33" viewBox="0 0 32 33" fill="none" xmlns="http://www.w3.org/2000/svg">
<path d="M25.9998 24.5H5.99984C5.82482 24.4989 5.65314 24.452 5.50195 24.3638C5.35077 24.2756 5.22539 24.1492 5.13833 23.9974C5.05127 23.8456 5.00559 23.6735 5.00586 23.4985C5.00613 23.3235 5.05233 23.1516 5.13984 23C5.96359 21.575 6.99984 17.9762 6.99984 13.5C6.99984 11.1131 7.94806 8.82387 9.63588 7.13604C11.3237 5.44821 13.6129 4.5 15.9998 4.5C18.3868 4.5 20.676 5.44821 22.3638 7.13604C24.0516 8.82387 24.9998 11.1131 24.9998 13.5C24.9998 17.9775 26.0373 21.575 26.8623 23C26.95 23.1518 26.9962 23.3239 26.9963 23.4991C26.9965 23.6744 26.9506 23.8466 26.8632 23.9985C26.7759 24.1504 26.6501 24.2767 26.4986 24.3647C26.3471 24.4527 26.1751 24.4994 25.9998 24.5Z" fill="#D3E4FF"/>
<path d="M27.725 22.4925C27.0313 21.2975 26 17.9163 26 13.5C26 10.8478 24.9464 8.3043 23.0711 6.42893C21.1957 4.55357 18.6522 3.5 16 3.5C13.3479 3.5 10.8043 4.55357 8.92895 6.42893C7.05358 8.3043 6.00002 10.8478 6.00002 13.5C6.00002 17.9175 4.96752 21.2975 4.27377 22.4925C4.0966 22.7963 4.00268 23.1415 4.00148 23.4931C4.00027 23.8448 4.09182 24.1906 4.26689 24.4956C4.44196 24.8006 4.69437 25.0541 4.99865 25.2304C5.30293 25.4068 5.64833 25.4997 6.00002 25.5H11.1013C11.332 26.6289 11.9455 27.6436 12.8382 28.3722C13.7308 29.1009 14.8477 29.4989 16 29.4989C17.1523 29.4989 18.2692 29.1009 19.1618 28.3722C20.0545 27.6436 20.6681 26.6289 20.8988 25.5H26C26.3516 25.4995 26.6968 25.4064 27.0009 25.23C27.3051 25.0535 27.5573 24.8 27.7322 24.4951C27.9071 24.1901 27.9986 23.8444 27.9973 23.4928C27.996 23.1412 27.9021 22.7962 27.725 22.4925ZM16 27.5C15.3798 27.4998 14.7749 27.3074 14.2685 26.9492C13.7622 26.5911 13.3793 26.0848 13.1725 25.5H18.8275C18.6208 26.0848 18.2379 26.5911 17.7315 26.9492C17.2252 27.3074 16.6202 27.4998 16 27.5ZM6.00002 23.5C6.96252 21.845 8.00002 18.01 8.00002 13.5C8.00002 11.3783 8.84287 9.34344 10.3432 7.84315C11.8435 6.34285 13.8783 5.5 16 5.5C18.1217 5.5 20.1566 6.34285 21.6569 7.84315C23.1572 9.34344 24 11.3783 24 13.5C24 18.0063 25.035 21.8412 26 23.5H6.00002Z" fill="#2353A0"/>
<circle cx="25" cy="8" r="6" fill="#E83B3B" stroke="#F2F4F7" stroke-width="2"/>
</svg>
