<svg width="16" height="16" viewBox="0 0 16 16" fill="none" xmlns="http://www.w3.org/2000/svg">
    <path d="M13.5 5H11.5V3C11.5 2.73478 11.3946 2.48043 11.2071 2.29289C11.0196 2.10536 10.7652 2 10.5 2H2.5C2.23478 2 1.98043 2.10536 1.79289 2.29289C1.60536 2.48043 1.5 2.73478 1.5 3V11C1.50029 11.0941 1.52712 11.1861 1.57739 11.2657C1.62766 11.3452 1.69934 11.4089 1.7842 11.4495C1.86905 11.4901 1.96364 11.5059 2.05709 11.4952C2.15054 11.4844 2.23907 11.4475 2.3125 11.3888L4.5 9.625V11.5C4.5 11.7652 4.60536 12.0196 4.79289 12.2071C4.98043 12.3946 5.23478 12.5 5.5 12.5H11.3494L13.6875 14.3888C13.776 14.4603 13.8862 14.4996 14 14.5C14.1326 14.5 14.2598 14.4473 14.3536 14.3536C14.4473 14.2598 14.5 14.1326 14.5 14V6C14.5 5.73478 14.3946 5.48043 14.2071 5.29289C14.0196 5.10536 13.7652 5 13.5 5ZM4.15938 8.61125L2.5 9.95312V3H10.5V8.5H4.47375C4.35932 8.50002 4.24835 8.53928 4.15938 8.61125ZM13.5 12.9531L11.8406 11.6112C11.7522 11.5397 11.6419 11.5004 11.5281 11.5H5.5V9.5H10.5C10.7652 9.5 11.0196 9.39464 11.2071 9.20711C11.3946 9.01957 11.5 8.76522 11.5 8.5V6H13.5V12.9531Z"
          fill="#3A86FF"/>
</svg>
