<svg
        width="32"
        height="32"
        viewBox="0 0 32 32"
        fill="none"
        xmlns="http://www.w3.org/2000/svg"
>
    <path
            d="M26.0001 24H6.00009C5.82506 23.9989 5.65338 23.952 5.5022 23.8638C5.35101 23.7756 5.22563 23.6492 5.13857 23.4974C5.05152 23.3456 5.00584 23.1735 5.0061 22.9985C5.00637 22.8235 5.05257 22.6516 5.14009 22.5C5.96384 21.075 7.00009 17.4762 7.00009 13C7.00009 10.6131 7.9483 8.32387 9.63613 6.63604C11.324 4.94821 13.6131 4 16.0001 4C18.387 4 20.6762 4.94821 22.364 6.63604C24.0519 8.32387 25.0001 10.6131 25.0001 13C25.0001 17.4775 26.0376 21.075 26.8626 22.5C26.9502 22.6518 26.9964 22.8239 26.9966 22.9991C26.9967 23.1744 26.9508 23.3466 26.8635 23.4985C26.7761 23.6504 26.6504 23.7767 26.4989 23.8647C26.3473 23.9527 26.1753 23.9994 26.0001 24ZM27.725 22C27.0313 20.805 26.0001 17.4237 26.0001 13C26.0001 10.3478 24.9464 7.8043 23.0711 5.92893C21.1957 4.05357 18.6522 3 16.0001 3C13.3479 3 10.8043 4.05357 8.92895 5.92893C7.05358 7.8043 6.00002 10.3478 6.00002 13C6.00002 17.4175 4.96752 20.7975 4.27377 21.9925C4.0966 22.2963 4.00268 22.6415 4.00148 22.9931C4.00027 23.3448 4.09182 23.6906 4.26689 23.9956C4.44196 24.3006 4.69437 24.5541 4.99865 24.7304C5.30293 24.9068 5.64833 24.9997 6.00002 25H11.1013C11.332 26.1289 11.9455 27.1436 12.8382 27.8722C13.7308 28.6009 14.8477 28.9989 16.0001 28.9989C17.1523 28.9989 18.2692 28.6009 19.1618 27.8722C20.0545 27.1436 20.6681 26.1289 20.8988 25H26.0001C26.3516 24.9995 26.6968 24.9064 27.0009 24.73C27.3051 24.5535 27.5573 24.3 27.7322 23.9951C27.9071 23.6901 27.9986 23.3444 27.9973 22.9928C27.996 22.6412 27.9021 22.2962 27.725 22ZM16.0001 27C15.3798 26.9998 14.7749 26.8074 14.2685 26.4492C13.7622 26.0911 13.3793 25.5848 13.1725 24.5H18.8275C18.6208 25.5848 18.2379 26.0911 17.7315 26.4492C17.2252 26.8074 16.6202 26.9998 16.0001 27Z"
            fill="#2353A0"
    />
</svg>