<svg width="12" height="13" viewBox="0 0 12 13" fill="none" xmlns="http://www.w3.org/2000/svg">
<path d="M11.8556 11.4856L8.00001 5.0575V1.5H8.50002C8.63262 1.5 8.7598 1.44732 8.85357 1.35355C8.94734 1.25979 9.00002 1.13261 9.00002 1C9.00002 0.867392 8.94734 0.740215 8.85357 0.646447C8.7598 0.552678 8.63262 0.5 8.50002 0.5H3.50001C3.36741 0.5 3.24023 0.552678 3.14646 0.646447C3.05269 0.740215 3.00001 0.867392 3.00001 1C3.00001 1.13261 3.05269 1.25979 3.14646 1.35355C3.24023 1.44732 3.36741 1.5 3.50001 1.5H4.00001V5.0575L0.144389 11.4856C0.053454 11.6372 0.00433512 11.8102 0.0020376 11.987C-0.000259925 12.1638 0.044346 12.338 0.13131 12.4919C0.218274 12.6458 0.344488 12.7739 0.49709 12.8632C0.649692 12.9525 0.823228 12.9997 1.00001 13H11C11.177 13 11.3507 12.953 11.5036 12.8639C11.6565 12.7748 11.7829 12.6467 11.8701 12.4927C11.9573 12.3388 12.0021 12.1644 11.9999 11.9875C11.9977 11.8105 11.9485 11.6374 11.8575 11.4856H11.8556ZM4.92876 5.45312C4.97553 5.37561 5.00017 5.28678 5.00001 5.19625V1.5H7.00001V5.19625C6.99986 5.28678 7.0245 5.37561 7.07126 5.45312L9.46002 9.4375C8.71002 9.58562 7.64314 9.52312 6.22564 8.80562C5.23126 8.3025 4.28501 8.03562 3.39939 8.005L4.92876 5.45312ZM1.00001 12L2.78376 9.02625C3.67439 8.9175 4.67814 9.14188 5.77251 9.69625C6.96001 10.2969 7.96002 10.5013 8.77252 10.5013C9.18574 10.5031 9.59713 10.4463 9.99439 10.3325L11 12H1.00001Z" fill="black"/>
</svg>
