<svg width="16" height="17" viewBox="0 0 16 17" fill="none" xmlns="http://www.w3.org/2000/svg">
    <path d="M14.265 7.73497L8.26498 1.73498C8.19466 1.66475 8.09935 1.62531 7.99998 1.62531C7.9006 1.62531 7.80529 1.66475 7.73498 1.73498L1.73498 7.73497C1.6826 7.78742 1.64694 7.85421 1.63249 7.92691C1.61805 7.99961 1.62548 8.07495 1.65383 8.14344C1.68219 8.21192 1.7302 8.27046 1.79181 8.31167C1.85342 8.35288 1.92586 8.37491 1.99998 8.37497H4.62498V13.5C4.62498 13.732 4.71716 13.9546 4.88126 14.1187C5.04535 14.2828 5.26791 14.375 5.49998 14.375H10.5C10.732 14.375 10.9546 14.2828 11.1187 14.1187C11.2828 13.9546 11.375 13.732 11.375 13.5V8.37497H14C14.0741 8.37491 14.1465 8.35288 14.2081 8.31167C14.2697 8.27046 14.3178 8.21192 14.3461 8.14344C14.3745 8.07495 14.3819 7.99961 14.3675 7.92691C14.353 7.85421 14.3174 7.78742 14.265 7.73497ZM11 7.62497C10.9005 7.62497 10.8051 7.66448 10.7348 7.73481C10.6645 7.80514 10.625 7.90052 10.625 7.99997V13.5C10.625 13.5331 10.6118 13.5649 10.5884 13.5884C10.5649 13.6118 10.5331 13.625 10.5 13.625H5.49998C5.46682 13.625 5.43503 13.6118 5.41159 13.5884C5.38814 13.5649 5.37498 13.5331 5.37498 13.5V7.99997C5.37498 7.90052 5.33547 7.80514 5.26514 7.73481C5.19481 7.66448 5.09943 7.62497 4.99998 7.62497H2.9056L7.99998 2.5306L13.0943 7.62497H11Z"
          fill="#3A86FF"/>
</svg>
