<svg width="22" height="22" viewBox="0 0 22 22" fill="none" xmlns="http://www.w3.org/2000/svg">
<path d="M18 0.5H4C3.07174 0.5 2.1815 0.868749 1.52513 1.52513C0.868749 2.1815 0.5 3.07174 0.5 4V18C0.5 18.9283 0.868749 19.8185 1.52513 20.4749C2.1815 21.1313 3.07174 21.5 4 21.5H18C18.9283 21.5 19.8185 21.1313 20.4749 20.4749C21.1313 19.8185 21.5 18.9283 21.5 18V4C21.5 3.07174 21.1313 2.1815 20.4749 1.52513C19.8185 0.868749 18.9283 0.5 18 0.5ZM19.75 18C19.75 18.4641 19.5656 18.9092 19.2374 19.2374C18.9092 19.5656 18.4641 19.75 18 19.75H4C3.53587 19.75 3.09075 19.5656 2.76256 19.2374C2.43437 18.9092 2.25 18.4641 2.25 18V4C2.25 3.53587 2.43437 3.09075 2.76256 2.76256C3.09075 2.43437 3.53587 2.25 4 2.25H18C18.4641 2.25 18.9092 2.43437 19.2374 2.76256C19.5656 3.09075 19.75 3.53587 19.75 4V18ZM8.375 7.0625C8.375 7.32209 8.29802 7.57585 8.1538 7.79169C8.00958 8.00752 7.8046 8.17575 7.56477 8.27509C7.32494 8.37443 7.06104 8.40042 6.80644 8.34978C6.55184 8.29914 6.31798 8.17413 6.13442 7.99058C5.95087 7.80702 5.82586 7.57316 5.77522 7.31856C5.72458 7.06396 5.75057 6.80006 5.84991 6.56023C5.94925 6.3204 6.11748 6.11542 6.33331 5.9712C6.54915 5.82698 6.80291 5.75 7.0625 5.75C7.4106 5.75 7.74444 5.88828 7.99058 6.13442C8.23672 6.38056 8.375 6.7144 8.375 7.0625ZM16.25 7.0625C16.25 7.32209 16.173 7.57585 16.0288 7.79169C15.8846 8.00752 15.6796 8.17575 15.4398 8.27509C15.1999 8.37443 14.936 8.40042 14.6814 8.34978C14.4268 8.29914 14.193 8.17413 14.0094 7.99058C13.8259 7.80702 13.7009 7.57316 13.6502 7.31856C13.5996 7.06396 13.6256 6.80006 13.7249 6.56023C13.8242 6.3204 13.9925 6.11542 14.2083 5.9712C14.4242 5.82698 14.6779 5.75 14.9375 5.75C15.2856 5.75 15.6194 5.88828 15.8656 6.13442C16.1117 6.38056 16.25 6.7144 16.25 7.0625ZM8.375 14.9375C8.375 15.1971 8.29802 15.4508 8.1538 15.6667C8.00958 15.8825 7.8046 16.0508 7.56477 16.1501C7.32494 16.2494 7.06104 16.2754 6.80644 16.2248C6.55184 16.1741 6.31798 16.0491 6.13442 15.8656C5.95087 15.682 5.82586 15.4482 5.77522 15.1936C5.72458 14.939 5.75057 14.6751 5.84991 14.4352C5.94925 14.1954 6.11748 13.9904 6.33331 13.8462C6.54915 13.702 6.80291 13.625 7.0625 13.625C7.4106 13.625 7.74444 13.7633 7.99058 14.0094C8.23672 14.2556 8.375 14.5894 8.375 14.9375ZM12.3125 11C12.3125 11.2596 12.2355 11.5133 12.0913 11.7292C11.9471 11.945 11.7421 12.1133 11.5023 12.2126C11.2624 12.3119 10.9985 12.3379 10.7439 12.2873C10.4893 12.2366 10.2555 12.1116 10.0719 11.9281C9.88837 11.7445 9.76336 11.5107 9.71272 11.2561C9.66208 11.0015 9.68807 10.7376 9.78741 10.4977C9.88675 10.2579 10.055 10.0529 10.2708 9.9087C10.4867 9.76448 10.7404 9.6875 11 9.6875C11.3481 9.6875 11.6819 9.82578 11.9281 10.0719C12.1742 10.3181 12.3125 10.6519 12.3125 11ZM16.25 14.9375C16.25 15.1971 16.173 15.4508 16.0288 15.6667C15.8846 15.8825 15.6796 16.0508 15.4398 16.1501C15.1999 16.2494 14.936 16.2754 14.6814 16.2248C14.4268 16.1741 14.193 16.0491 14.0094 15.8656C13.8259 15.682 13.7009 15.4482 13.6502 15.1936C13.5996 14.939 13.6256 14.6751 13.7249 14.4352C13.8242 14.1954 13.9925 13.9904 14.2083 13.8462C14.4242 13.702 14.6779 13.625 14.9375 13.625C15.2856 13.625 15.6194 13.7633 15.8656 14.0094C16.1117 14.2556 16.25 14.5894 16.25 14.9375Z" fill="white"/>
</svg>
