<svg xmlns="http://www.w3.org/2000/svg" viewBox="0 0 762 762" fill="none" shape-rendering="auto"><metadata xmlns:rdf="http://www.w3.org/1999/02/22-rdf-syntax-ns#" xmlns:xsi="http://www.w3.org/2001/XMLSchema-instance" xmlns:dc="http://purl.org/dc/elements/1.1/" xmlns:dcterms="http://purl.org/dc/terms/"><rdf:RDF><rdf:Description><dc:title>Adventurer</dc:title><dc:creator>Lisa Wischofsky</dc:creator><dc:source xsi:type="dcterms:URI">https://www.figma.com/community/file/1184595184137881796</dc:source><dcterms:license xsi:type="dcterms:URI">https://creativecommons.org/licenses/by/4.0/</dcterms:license><dc:rights>Remix of „Adventurer” (https://www.figma.com/community/file/1184595184137881796) by „Lisa Wischofsky”, licensed under „CC BY 4.0” (https://creativecommons.org/licenses/by/4.0/)</dc:rights></rdf:Description></rdf:RDF></metadata><mask id="viewboxMask"><rect width="762" height="762" rx="0" ry="0" x="0" y="0" fill="#fff" /></mask><g mask="url(#viewboxMask)"><g transform="scale(-1 1) translate(-762 0)"><path d="M396 164.8a224.8 224.8 0 0 1 104.8 42.4c6.2 4.9 12.5 9.4 18 15a225.4 225.4 0 0 1 71.8 149 58.5 58.5 0 0 1 50.9 42.2 71 71 0 0 1-27.6 76.5c-11 7.7-24.5 12-38 11.7-5 0-10-1.6-15-1.8-1.9 2.2-3.3 4.9-4.8 7.3A223.3 223.3 0 0 1 389 609.8c-11 .7-21.9 2-33 .7a223.7 223.7 0 0 1-178.8-342.3A223.4 223.4 0 0 1 352 163.5c14.6-1.4 29.4-.3 44 1.3Z" fill="#000"/><path fill-rule="evenodd" clip-rule="evenodd" d="M498.8 213.2A216 216 0 0 0 363 169c-13-.2-26.2 1.6-39 4a218 218 0 0 0-113.6 365.5 218.5 218.5 0 0 0 260.4 40.2c35-18.8 64.2-47.3 84.4-81.5l-3-1.6c-2.8-1.4-5.7-3-8-5-2.2-2-.3-5.8 2.7-4.7 1.5.7 3 1.6 4.4 2.4a55 55 0 0 0 59.6-3.6 64.5 64.5 0 0 0 25-69.8 53.1 53.1 0 0 0-24-31 52.6 52.6 0 0 0-47-2.8c-1.6.8-3.4 1.5-5 1.3-2.5-.2-2.8-4.2-.6-5.2 8-4 16.5-5.6 25.4-6.4a217 217 0 0 0-72-146.4c-4.4-4-8.7-8.1-13.9-11.3Zm107.6 196.2c2-1.2 1.3-5.1-1.4-5-2 0-4.2.8-6.2 1.6l-1.4.4a95.1 95.1 0 0 0-25.5 12.4c-2.2 2-2.2 4.4.1 6.2a92 92 0 0 0 5.2 2.8 36 36 0 0 1 13 9.2c-.2 1.9-2 3.4-3.4 4.5l-.2.2c-3.9 3-8.8 5-13.6 7-2.5 1-4.9 2-7.1 3.1-1.7.8-2.6 2.2-1.6 3.9 1 2 3.2 1.1 5 .5l.6-.2 5.4-2.3c5.4-2.3 11-4.5 15.4-8 2.7-2.1 5.1-5.1 5.4-8.7-.5-3.4-2.7-5.7-5.3-7.8a83 83 0 0 0-11.6-7.2l-1.1-.6c5.4-3 10.8-5.6 16.6-7.7l5-1.7a52 52 0 0 0 6.7-2.6Z" fill="#763900"/><g transform="translate(-161 -83)"><path d="M587.4 431.6a65 65 0 0 1 28 28.7c5.5-3.4 11.2-6.7 16.7-10.2 1.6-.9 3.2-2 5-2.4 1.9.5 2.7 1.3 2.6 3.4-.4 1.3-1.7 2-2.8 2.8-6.4 4-13 7.6-19.4 11.8 6 14.1 6 31.2.8 45.6a65.5 65.5 0 0 1-73.5 42.2 65.2 65.2 0 1 1 42.6-121.9Z" fill="#000"/><path d="M549.2 430.3a59.6 59.6 0 1 1 15.3 118.2 59.6 59.6 0 0 1-15.3-118.2Z" fill="#fff"/><path d="M414.7 454.3a55 55 0 1 1-82.8 49.7 68 68 0 0 1 3-20.4c-4.4-2.7-8.7-5.6-13-8.6-1.6-1.2-1.7-2.1-1.4-4.1 1.3-1.3 2.7-1.6 4.3-.7 4.2 2.6 8.2 5.5 12.3 8.2a55.4 55.4 0 0 1 77.6-24Z" fill="#000"/><path d="M378.2 453.3a49.4 49.4 0 1 1 12.8 97.6 49.3 49.3 0 0 1-12.8-97.6Z" fill="#fff"/><path d="M526.5 467.5c12-2.9 24.8 4.2 29.3 15.6a25.6 25.6 0 1 1-29.4-15.6ZM398.2 478.4c9.5-2 19.6 2.6 24.5 11a24.5 24.5 0 0 1 2.2 18.5 23.8 23.8 0 0 1-15.9 15.3 23 23 0 1 1-10.8-44.8Z" fill="#000"/></g><g transform="translate(-161 -83)"><path d="M502 385c9.9 0 19.9 3.2 28.8 7.3 3.4 1.8 7 4 7.3 8.3-5.1-.9-10.1-2.1-15.4-2.3a58.7 58.7 0 0 0-33.2 7.2c-2.5 1.4-5 3.3-7.6 4.4-1.8.2-4-2-4-3.8-.2-5.8 2-11.9 6.6-15.7A27 27 0 0 1 502 385ZM414 402.6c5.8.2 11 5.3 12.5 10.6.8 2.7-.4 5.8-3.5 5.7-8.8.2-18.2 0-26.8 2.2-7.5 2-14.7 6.7-21.4 10.8-1.2.8-2.5 1-4 1.2.4-2 .7-3.7 2-5.2 3.3-4.4 6.8-8.6 10.7-12.3 6-5.2 13-9 20.4-11.7 3.2-1.1 6.7-1.6 10.1-1.3Z" fill="#000"/></g><g transform="translate(-161 -83)"><path d="M484.8 621.3a44.2 44.2 0 0 1 30.5 37.2 49.6 49.6 0 0 0-10.9-18A37.2 37.2 0 0 0 477 629a28 28 0 0 0-20.8 10.3c-5.5 6.8-7.7 16-6.7 24.7-.7-4.7-1.9-9.1-1.8-13.9a31 31 0 0 1 10-23.3 29 29 0 0 1 27.1-5.4Z" fill="#D31E1E"/><path d="M477 628.9a37.2 37.2 0 0 1 27.4 11.6c5 5.1 8.4 11.4 11 18 .4 3.5 2.2 6.5-1.4 8.8-8.4.2-16.7.8-25 1-12.3 1-24.7.5-37 2-1.9-2-2.3-3.8-2.5-6.4-1-8.6 1.2-17.9 6.7-24.7A28 28 0 0 1 477 629Z" fill="#000"/><path d="M484.5 635.5c12.6 3 22 14 25.5 26.2-18.3.4-36.6 1.7-54.8 2.2a28 28 0 0 1 7.6-23.1c5.8-5.7 14-7 21.7-5.3Z" fill="#fff"/><path d="M514 667.3c-9.3 7.3-23.6 8.8-35 9.1-8.6 0-19.9-.6-27-6.1 12.3-1.5 24.7-1 37-2 8.3-.2 16.6-.8 25-1Z" fill="#D31E1E"/></g><g transform="translate(-161 -83)"></g><g transform="translate(-161 -83)"></g><g transform="translate(-161 -83)"><path d="M464 199.3c14.7-1 29.4 2.8 42.6 9.1a66.2 66.2 0 0 1 33.3 32.7c1 2.6 1.2 5-.7 7.1-1.5.7-3.5.6-5 1-3 1-5.3 3.4-6.5 6.3-2.8 6.3-3.9 13.4-6.1 20-2.2 7-5.2 13.5-10.2 19A98.5 98.5 0 0 1 462 323a84.4 84.4 0 0 1-45-1c-7.7-2.3-14.1-7.4-18.4-14.1-.8-1.3-.2-3.5 1.6-3.6 4.5-.4 8.8-.5 13-2.4 5.8-2.3 9-7.8 10-13.8 1.1-8.4-.5-15.9-1.4-24.2a95.3 95.3 0 0 1-.4-32.2c1.6-7.5 5.1-14.4 10.7-19.7a49.6 49.6 0 0 1 31.9-12.8Z" fill="#000"/><path d="M462 205.2c13.3-1.4 27.3 2 39.5 7.3 14.3 6.6 27 16 33.6 30.7a17.1 17.1 0 0 0-12.5 10.3c-4.3 9.9-5.4 21.1-11.1 31a62.5 62.5 0 0 1-16.3 16.7 92.4 92.4 0 0 1-60.7 18.5c-9.8-1.2-20-2.6-27.1-10a39 39 0 0 0 10.7-3.6c5.9-3.5 9.7-9.6 10.8-16.3 1.4-11.9-1.1-22.2-2.2-33.8-.8-5.2-.6-10.7-.5-16 .5-8.6 3.3-17.2 9.5-23.3a43 43 0 0 1 26.3-11.5Z" fill="#85c2c6"/></g><g transform="translate(-161 -83)"></g></g></g></svg>