<svg xmlns="http://www.w3.org/2000/svg" viewBox="0 0 440 440" fill="none" shape-rendering="auto"><metadata xmlns:rdf="http://www.w3.org/1999/02/22-rdf-syntax-ns#" xmlns:xsi="http://www.w3.org/2001/XMLSchema-instance" xmlns:dc="http://purl.org/dc/elements/1.1/" xmlns:dcterms="http://purl.org/dc/terms/"><rdf:RDF><rdf:Description><dc:title>Face Generator</dc:title><dc:creator>The Visual Team</dc:creator><dc:source xsi:type="dcterms:URI">https://www.figma.com/community/file/986078800058673824</dc:source><dcterms:license xsi:type="dcterms:URI">https://creativecommons.org/licenses/by/4.0/</dcterms:license><dc:rights>Remix of „Face Generator” (https://www.figma.com/community/file/986078800058673824) by „The Visual Team”, licensed under „CC BY 4.0” (https://creativecommons.org/licenses/by/4.0/)</dc:rights></rdf:Description></rdf:RDF></metadata><mask id="viewboxMask"><rect width="440" height="440" rx="0" ry="0" x="0" y="0" fill="#fff" /></mask><g mask="url(#viewboxMask)"><rect fill="#b6e3f4" width="440" height="440" x="0" y="0" /><g transform="matrix(.71048 0 0 .71048 24 2)"><path d="M431 346v-8c0-35.3-11.7-76.1-31.5-112-28.4-51.6-73.4-93-124-93-53.2 0-100.2 45.8-128.2 101A238.8 238.8 0 0 0 120 338v8a155.5 155.5 0 0 0 311 0Z" fill="#ecdcbf"/></g><g transform="translate(81.7 150.7) scale(.71856)"><path d="M325 213v-1.6C325 139.8 264.6 55 190 55S55 139.8 55 211.4a128.6 128.6 0 0 0 0 3.2c0 71.5 60.4 129.5 135 129.5s135-58 135-129.5V213Z" fill="#a66637"/><path d="M324.6 204.8c-5.1 67-63.4 119.8-134.6 119.8-71.2 0-129.5-52.8-134.6-119.8-.3 3.3-.4 6.6-.4 9.8 0 71.5 60.4 129.5 135 129.5s135-58 135-129.5c0-3.2-.1-6.5-.4-9.8Z" fill="#000" fill-opacity=".2"/></g><g transform="translate(199.5 333.4) scale(.71856)"><path fill-rule="evenodd" clip-rule="evenodd" d="M20 47.5c0-1.4 1.2-2.6 2.6-2.6 3.2-.1 8-.7 12-2 2-.8 3.5-1.6 4.5-2.5 1-.8 1.4-1.7 1.4-2.6 0-.8-.4-1.7-1.4-2.5-1-1-2.6-1.8-4.6-2.4-3.9-1.4-8.7-2-12-2a2.5 2.5 0 0 1 .1-5.1c3.2 0 8-.6 12-2 2-.6 3.5-1.4 4.5-2.3 1-1 1.4-1.8 1.4-2.8 0-1-.4-1.8-1.4-2.7-1-.9-2.6-1.7-4.5-2.4a42 42 0 0 0-12-1.9 2.5 2.5 0 0 1 0-5c3.6 0 9 .6 13.6 2.1 2.3.8 4.6 1.9 6.3 3.5 1.8 1.5 3 3.7 3 6.4 0 2.8-1.2 5-3 6.5a17.4 17.4 0 0 1-5.4 3.2c2 .7 3.9 1.7 5.4 3 1.7 1.6 3 3.7 3 6.4 0 2.8-1.3 4.9-3 6.4-1.8 1.6-4 2.7-6.3 3.4-4.6 1.6-10 2.2-13.5 2.3-1.4 0-2.6-1-2.6-2.4Z" fill="#000"/></g><g transform="translate(280.7 235.4) scale(.71856)"><path d="M24 43.3C24 31.5 33.5 22 45.3 22h37.2c11.8 0 21.4 9.5 21.4 21.3v37.3c0 11.8-9.6 21.4-21.4 21.4H45.3A21.3 21.3 0 0 1 24 80.6V43.3Z" fill="#a66637"/><path d="M32.9 62A31 31 0 1 1 95 62a31 31 0 1 1-62.1 0Z" fill="#000" fill-opacity=".2"/></g><g transform="matrix(-.71856 0 0 .71856 161.5 235.4)"><path d="M24 43.3C24 31.5 33.5 22 45.3 22h37.2c11.8 0 21.4 9.5 21.4 21.3v37.3c0 11.8-9.6 21.4-21.4 21.4H45.3A21.3 21.3 0 0 1 24 80.6V43.3Z" fill="#a66637"/><path d="M32.9 62A31 31 0 1 1 95 62a31 31 0 1 1-62.1 0Z" fill="#000" fill-opacity=".2"/></g><g transform="translate(114.8 215.5) scale(.71856)"><path d="M74 93.1h40.4v11H74zM74 60h40.4v11H74zM173.3 93.1h40.4v11h-40.4zM173.3 60h40.4v11h-40.4z" fill="#000"/></g><g transform="translate(127.7 288.7) scale(.71856)"></g><g transform="translate(193 279.4) scale(.71856)"><path d="M33.4 22c-7.1 9.5-12 31.5-7.8 33.5 4.2 2.1 10.4 0 17 0" stroke="#000" stroke-opacity=".5" stroke-width="4" stroke-linecap="round" stroke-linejoin="round"/></g><g transform="matrix(.52237 0 0 .52237 122.9 244.8)"><path d="M32.5 87.5C8.1 87.5 2.5 32.5 5 4h27.5c-6.2 16-3.2 29.8-1.5 47 2 20 21.3 5.1 25.4-2.7.5 15.6-12 39.2-23.9 39.2Z" fill="#ecdcbf"/></g><g transform="matrix(-.52237 0 0 .52237 315.7 244.8)"><path d="M32.5 87.5C8.1 87.5 2.5 32.5 5 4h27.5c-6.2 16-3.2 29.8-1.5 47 2 20 21.3 5.1 25.4-2.7.5 15.6-12 39.2-23.9 39.2Z" fill="#ecdcbf"/></g><g transform="matrix(.52237 0 0 .52237 108.7 145.6)"><path d="M143.3 136.7c-3.5-17 23.9-29.6 38.9-33.1 15-3.6 17.8-3.6 37.4-3.6 19.6 0 63.8 6.8 62.4 30.3-1.2 18.8-21.9 18.3-32.1 15.7 4.9 8 13.2 25.9 7.5 33.8-5.7 8-18.8 1.2-24.6-3.2-.5 5.5-5.2 18-20 24.3C198 207 194 185.7 194 174c-6.6 2.3-21.9 4.6-29.6-4.2-7.7-8.9 3.3-19.6 9.7-24-8.2 3.5-28 3.9-30.7-9.2Z" fill="#ecdcbf"/><path d="M374 131c6.5 15.9 11.5 34.5 11.5 70-11 0-38.5 11-92.5-18-54.8-29.5-68.9-59.5-82-79-13 27-37 51.3-72.5 73.5C103 199.7 54.2 198.5 38 201c0-23.1 2-46 10.9-67.4A176 176 0 0 1 211 25a175 175 0 0 1 124 51.5c16.4 16.4 30.2 33.1 39 54.5Z" fill="#ecdcbf"/></g></g></svg>