<svg xmlns="http://www.w3.org/2000/svg" viewBox="0 0 440 440" fill="none" shape-rendering="auto"><metadata xmlns:rdf="http://www.w3.org/1999/02/22-rdf-syntax-ns#" xmlns:xsi="http://www.w3.org/2001/XMLSchema-instance" xmlns:dc="http://purl.org/dc/elements/1.1/" xmlns:dcterms="http://purl.org/dc/terms/"><rdf:RDF><rdf:Description><dc:title>Face Generator</dc:title><dc:creator>The Visual Team</dc:creator><dc:source xsi:type="dcterms:URI">https://www.figma.com/community/file/986078800058673824</dc:source><dcterms:license xsi:type="dcterms:URI">https://creativecommons.org/licenses/by/4.0/</dcterms:license><dc:rights>Remix of „Face Generator” (https://www.figma.com/community/file/986078800058673824) by „The Visual Team”, licensed under „CC BY 4.0” (https://creativecommons.org/licenses/by/4.0/)</dc:rights></rdf:Description></rdf:RDF></metadata><mask id="viewboxMask"><rect width="440" height="440" rx="0" ry="0" x="0" y="0" fill="#fff" /></mask><g mask="url(#viewboxMask)"><g transform="matrix(.71048 0 0 .71048 24 2)"><g fill="#724133"><path d="M288.2 88.3H278C176.7 88.3 94.6 151 94.6 228.1v98.4c0 77.2 82.1 139.8 183.4 139.8h10.2c101.3 0 183.4-62.6 183.4-139.8v-98.4c0-77.2-82.1-139.8-183.4-139.8Z"/><path d="M127.1 76.8c50-43.7 238-81 278 48 38 14.5-104 177.3-104 278 0 107.5-93 181.4-210 147-65.3-19.1-74.5-95.1-57.5-147 17.5-53.3 30-45 7.5-143-9.2-40 38-84.4 63-113.5-13-41.5 11-59 23-69.5Z"/></g></g><g transform="translate(81.7 150.7) scale(.71856)"><circle cx="190.2" cy="167.2" r="121.2" fill="#89532c"/><path fill="#89532c" d="M69 164.5h242.4v191.2H69z"/><path d="M69 336h242v20H69v-20Z" fill="#000" fill-opacity=".2"/></g><g transform="translate(199.5 333.4) scale(.71856)"><path d="M58.4 36.8c0 17.1-13.9 4.2-31 4.2s-31 13-31-4.2a31 31 0 1 1 62 0Z" fill="#F9F9F9"/></g><g transform="translate(280.7 235.4) scale(.71856)"><rect x="27" y="21" width="80" height="80" rx="21.3" fill="#89532c"/><rect x="35.9" y="29.9" width="62.2" height="62.2" rx="12.4" fill="#000" fill-opacity=".2"/><rect x="28.8" y="44.1" width="17.8" height="35.5" rx="5.3" fill="#89532c"/></g><g transform="matrix(-.71856 0 0 .71856 161.5 235.4)"><rect x="27" y="21" width="80" height="80" rx="21.3" fill="#89532c"/><rect x="35.9" y="29.9" width="62.2" height="62.2" rx="12.4" fill="#000" fill-opacity=".2"/><rect x="28.8" y="44.1" width="17.8" height="35.5" rx="5.3" fill="#89532c"/></g><g transform="translate(114.8 215.5) scale(.71856)"><g stroke="#000" stroke-linecap="round"><path d="M222 49c-4.2 3.4-10.8 10.1-23.7 10.1a30 30 0 0 1-21.8-10" stroke-width="8.3"/><path d="M222 89c-4.2 3.4-10.8 10.1-23.7 10.1a30 30 0 0 1-21.8-10" stroke-width="4.1"/><path d="M110.6 49c-4.3 3.4-11 10.1-23.8 10.1A30 30 0 0 1 65 49" stroke-width="8.3"/><path d="M110.6 89c-4.3 3.4-11 10.1-23.8 10.1a30 30 0 0 1-21.8-10" stroke-width="4.1"/></g></g><g transform="translate(127.7 288.7) scale(.71856)"><g fill="#FFC6C6"><rect x="21" y="16" width="43.4" height="43.4" rx="21.7"/><rect x="194" y="16" width="43.4" height="43.4" rx="21.7"/></g></g><g transform="translate(193 279.4) scale(.71856)"><path d="M16.6 46.2A11.3 11.3 0 0 0 28.3 61 11.3 11.3 0 0 0 50 61h1a11.3 11.3 0 0 0 10.7-15A11.3 11.3 0 0 1 50 53.9a11.3 11.3 0 0 1-21.8 0h-1c-5 0-9.2-3.1-10.7-7.6Z" fill="#000" fill-opacity=".2"/></g><g transform="matrix(.52237 0 0 .52237 122.9 244.8)"><path d="M43.1 45C43 31.8 41.5 1 25.6 0 8 0 8.6 33.7 7.8 45c-.9 10-3.5 17.3 0 36.4C9.8 92.6 17.5 94 25.6 94c7.6 0 15.6-.9 17.5-9.6 4-18 .3-26.2 0-39.4Z" fill="#724133"/></g><g transform="matrix(-.52237 0 0 .52237 315.7 244.8)"><path d="M43.1 45C43 31.8 41.5 1 25.6 0 8 0 8.6 33.7 7.8 45c-.9 10-3.5 17.3 0 36.4C9.8 92.6 17.5 94 25.6 94c7.6 0 15.6-.9 17.5-9.6 4-18 .3-26.2 0-39.4Z" fill="#724133"/></g><g transform="matrix(.52237 0 0 .52237 108.7 145.6)"><path d="M374 130c6.5 15.9 11.5 34.5 11.5 70-11 0-73.7 6-114.5-10s-46.9-28.5-60-48c-13 27-37 38-73.5 48s-83.3 7.5-99.5 10c0-23.1 2-46 10.9-67.4A176 176 0 0 1 211 24a175 175 0 0 1 124 51.5c16.4 16.4 30.2 33.1 39 54.5Z" fill="#724133"/></g></g></svg>