<svg xmlns="http://www.w3.org/2000/svg" viewBox="0 0 440 440" fill="none" shape-rendering="auto"><metadata xmlns:rdf="http://www.w3.org/1999/02/22-rdf-syntax-ns#" xmlns:xsi="http://www.w3.org/2001/XMLSchema-instance" xmlns:dc="http://purl.org/dc/elements/1.1/" xmlns:dcterms="http://purl.org/dc/terms/"><rdf:RDF><rdf:Description><dc:title>Face Generator</dc:title><dc:creator>The Visual Team</dc:creator><dc:source xsi:type="dcterms:URI">https://www.figma.com/community/file/986078800058673824</dc:source><dcterms:license xsi:type="dcterms:URI">https://creativecommons.org/licenses/by/4.0/</dcterms:license><dc:rights>Remix of „Face Generator” (https://www.figma.com/community/file/986078800058673824) by „The Visual Team”, licensed under „CC BY 4.0” (https://creativecommons.org/licenses/by/4.0/)</dc:rights></rdf:Description></rdf:RDF></metadata><mask id="viewboxMask"><rect width="440" height="440" rx="0" ry="0" x="0" y="0" fill="#fff" /></mask><g mask="url(#viewboxMask)"><rect fill="#b6e3f4" width="440" height="440" x="0" y="0" /><g transform="matrix(.71048 0 0 .71048 24 2)"><g fill="#4a312c"><path d="M73 341.5c-51 49 15.7 94 55 94 0 35 78.5 51.5 121 35 14.5 26 48.5 44.3 104.5 16.5 90 5 76.7-55.4 98.7-67.5 30.8-17 62.8-56 30.8-89 0-41-1.5-79.4-30.8-106.3 11.8-40.2-18.7-80.7-77.2-80.7-39-33.8-62.2-10-93-19-92.5-27-119.2 19.2-135.5 49-22.5-15.4-73 20.1-67 63-43 26.6 12 87.1-6.5 105Z"/><path d="M149 129.5c20 9.2 28.2 35.3 30.5 46l-45.5 37c3.2-10.2.5-37.3-3.5-56.5-4-19.2-30.3-25.8-49.5-26.5a84.6 84.6 0 0 1 68 0ZM313 93c-20.6 8-30.4 33.6-33.4 44l43 39.9c-2.5-10.4 2-37.3 7.1-56.2 5.2-18.9 32-23.8 51.1-23.3a84.6 84.6 0 0 0-67.9-4.3ZM501.3 247.8c-16.5-14.6-43.7-11.5-54.4-9.4L431.3 295c8-7 34-15.5 53.1-19.6 19.2-4 35.9 17.4 44.2 34.7a84.6 84.6 0 0 0-27.3-62.3ZM49 321.7c16.4 14.6 43.6 11.5 54.3 9.4l15.6-56.6c-8 7-34 15.5-53.1 19.6-19.2 4-35.9-17.4-44.2-34.7A84.6 84.6 0 0 0 49 321.7ZM173 494.8c20.8-7 31.5-32.3 35-42.6l-41.6-41.5c2.1 10.5-3.3 37.2-9.2 56-6 18.6-32.8 22.5-52 21.3 12 6.5 38 17 67.7 6.8ZM456.4 440.4c-21.7-3.9-36.2-27.1-41.1-36.9l34.7-47.2c-.5 10.6 9 36.2 17.6 53.8 8.7 17.6 35.9 17.4 54.6 13.2a84.6 84.6 0 0 1-65.9 17.1Z"/></g></g><g transform="translate(81.7 150.7) scale(.71856)"><path d="M293.1 88.7C258 38.7 171.6 25.4 120.3 58 69 91 57.5 145.2 65 204.8c3.1 24.1 7 43 9 63.5 6.6 63.2 93 94.7 118.6 94.7 40.4 0 108.3-44.3 116.8-94.7 7.7-46 7-42.4 7.5-63.5.6-21 11.3-66.1-23.9-116.1Z" fill="#da9969"/><path d="M76.2 279.7c22.6 47.6 92.6 71.3 115.6 71.3 39 0 102.8-38.9 118-85.2l-.5 2.8C301 319 233 363.5 192.6 363.5c-24 0-101.7-27.9-116.4-83.8Z" fill="#000" fill-opacity=".2"/></g><g transform="translate(199.5 333.4) scale(.71856)"><path fill-rule="evenodd" clip-rule="evenodd" d="M59.2 13 63.7 9a3.2 3.2 0 0 1 4 5l-4.1 3.5-2.3 2a49 49 0 0 1-33.7 11.8 51 51 0 0 1-38.3-17.8 3.2 3.2 0 0 1 5-4c4 5 16.3 15.4 33.3 15.4 11 0 17.7-2.3 22.7-5.2a48 48 0 0 0 9-6.9Z" fill="#000"/></g><g transform="translate(280.7 235.4) scale(.71856)"><rect x="22" y="19" width="88.1" height="88.1" rx="44.1" fill="#da9969"/><path d="m79 38.5-39 29L83.5 87" stroke="#000" stroke-opacity=".2" stroke-width="5" stroke-linecap="round" stroke-linejoin="round"/></g><g transform="matrix(-.71856 0 0 .71856 161.5 235.4)"><rect x="22" y="19" width="88.1" height="88.1" rx="44.1" fill="#da9969"/><path d="m79 38.5-39 29L83.5 87" stroke="#000" stroke-opacity=".2" stroke-width="5" stroke-linecap="round" stroke-linejoin="round"/></g><g transform="translate(114.8 215.5) scale(.71856)"><path d="M187 76a7 7 0 1 1 13.9 0v13.8a7 7 0 1 1-13.9 0V75.9ZM88 76a7 7 0 1 1 13.9 0v13.8a7 7 0 0 1-13.9 0V75.9Z" fill="#000"/></g><g transform="translate(127.7 288.7) scale(.71856)"></g><g transform="translate(193 279.4) scale(.71856)"><path d="M42.4 22c-.7 5.4-3 16.3-7.1 17-5 1-11-8-13.1-2-2 6 12 21.2 22.2 18.2" stroke="#000" stroke-opacity=".5" stroke-width="3.7" stroke-linecap="round" stroke-linejoin="round"/></g><g transform="matrix(.52237 0 0 .52237 122.9 244.8)"><path d="M11 103V7.5h40L11 103Z" fill="#4a312c"/></g><g transform="matrix(-.52237 0 0 .52237 315.7 244.8)"><path d="M11 103V7.5h40L11 103Z" fill="#4a312c"/></g><g transform="matrix(.52237 0 0 .52237 108.7 145.6)"><g fill="#4a312c"><path d="M374 133c6.5 15.9 11.5 34.5 11.5 70-11 0-38.5 11-92.5-18-54.8-29.5-68.9-59.5-82-79-13 27-37 51.3-72.5 73.5C103 201.7 54.2 200.5 38 203c0-23.1 2-46 10.9-67.4A176 176 0 0 1 211 27a175 175 0 0 1 124 51.5c16.4 16.4 30.2 33.1 39 54.5Z"/><path d="M210 148c10.4-22.4 12-39.5 12-47.5-4.5-25-20.5-14-22-7.5s.5 17-1.5 43c-1.6 20.8-22.3 46-34 54a90.6 90.6 0 0 0 45.5-42Z"/></g></g></g></svg>