<?xml version="1.0" encoding="UTF-8"?>
<svg version="1.1" xmlns="http://www.w3.org/2000/svg" width="256" height="256">
<path d="M0 0 C84.48 0 168.96 0 256 0 C256 84.48 256 168.96 256 256 C171.52 256 87.04 256 0 256 C0 171.52 0 87.04 0 0 Z " fill="#FBA4A4" transform="translate(0,0)"/>
<path d="M0 0 C0.67160156 0.49886719 1.34320313 0.99773438 2.03515625 1.51171875 C8.64925998 6.58495436 12.94858669 13.95225751 15.8125 21.6875 C17.83271427 26.59373466 21.33797176 28.9875537 25.51953125 32.08203125 C29.74099232 35.34618461 33.29874767 38.89624301 35 44 C35.92655445 51.70103456 34.02991221 57.04448216 29.36328125 63.13671875 C28.29010984 64.49006545 27.19536118 65.8267438 26.07421875 67.140625 C24.81769084 68.94386316 24.81769084 68.94386316 25.046875 71.08984375 C26.37635541 73.75425327 27.84268137 74.17059141 30.5625 75.3125 C36.92187812 78.26865281 43.3140275 82.22552748 46 89 C46.40929925 96.50381962 42.4051811 101.28039637 38.12890625 107.046875 C36.4705879 109.34722118 35.14406348 111.42429425 34 114 C34.39832031 114.51949219 34.79664063 115.03898438 35.20703125 115.57421875 C42.13814832 124.69765996 45.41924463 131.27036056 44 143 C39.71824743 156.12308135 29.84376052 164.63131919 18 171 C-19.04097904 189.69914376 -61.73449939 192.51553304 -102 184 C-102.84046875 183.82339844 -103.6809375 183.64679688 -104.546875 183.46484375 C-120.95479893 179.84544877 -137.10706006 172.8954422 -150 162 C-150.6496875 161.484375 -151.299375 160.96875 -151.96875 160.4375 C-159.03517861 154.23887841 -164.3861881 143.47133122 -165.2734375 134.1171875 C-165.55287498 125.19668339 -164.15325719 118.82074496 -158.25 111.96875 C-156.55282224 110.24231055 -154.80106556 108.61667075 -153 107 C-152.236875 106.195625 -151.47375 105.39125 -150.6875 104.5625 C-149 103 -149 103 -147 103 C-146.92523438 103.85722656 -146.85046875 104.71445313 -146.7734375 105.59765625 C-146.02294972 112.12395681 -145.39597475 117.07904964 -140.55859375 121.765625 C-135.63673445 125.66363888 -130.06818202 125.62050583 -124 125 C-121.98422132 124.38268262 -119.97923193 123.72600647 -118 123 C-117.99589111 123.74048584 -117.99178223 124.48097168 -117.98754883 125.24389648 C-117.95438226 128.64254122 -117.88371119 132.03944793 -117.8125 135.4375 C-117.80669922 136.60216797 -117.80089844 137.76683594 -117.79492188 138.96679688 C-117.5542305 148.46073453 -115.24954397 155.32819551 -108.4375 162.125 C-96.33121121 173.5058183 -81.98650497 177.62190921 -65.74511719 177.47509766 C-58.33954878 177.23288445 -51.83889338 175.93641995 -45 173 C-44.08863281 172.61457031 -43.17726563 172.22914063 -42.23828125 171.83203125 C-37.29833814 169.55035349 -33.31220471 166.89409921 -29.375 163.13671875 C-28 162 -28 162 -26 162 C-25.72309326 161.40767578 -25.44618652 160.81535156 -25.16088867 160.20507812 C-24 158 -24 158 -22.73950195 156.40429688 C-17.65260908 149.87764599 -18.2180539 142.38475917 -18.1875 134.5 C-18.16432103 133.09110771 -18.13894869 131.68224971 -18.11132812 130.2734375 C-18.05268492 126.84867435 -18.0162346 123.42518306 -18 120 C-17.11574341 120.53270508 -17.11574341 120.53270508 -16.21362305 121.07617188 C-10.18151212 124.59177019 -6.01011486 126.13258658 1 125 C4.36878771 123.69280737 4.36878771 123.69280737 7 122 C7.99 121.67 8.98 121.34 10 121 C11.13545562 118.70465742 11.13545562 118.70465742 12 116 C12.556875 114.824375 12.556875 114.824375 13.125 113.625 C14.7920746 108.62377621 14.4893355 104.55394736 12.3125 99.8125 C9.83698495 95.28283417 6.93990878 92.64663626 2 91 C-0.16424777 90.8800739 -2.33246644 90.82470458 -4.5 90.8125 C-6.21703125 90.79123047 -6.21703125 90.79123047 -7.96875 90.76953125 C-11.17762385 90.76450943 -11.17762385 90.76450943 -14 93 C-14.50904384 95.4157113 -14.50904384 95.4157113 -14.51171875 98.2265625 C-14.54716797 99.2578125 -14.58261719 100.2890625 -14.61914062 101.3515625 C-14.65297852 102.97191406 -14.65297852 102.97191406 -14.6875 104.625 C-14.72166016 105.71296875 -14.75582031 106.8009375 -14.79101562 107.921875 C-14.87368334 110.61448063 -14.94277087 113.30675291 -15 116 C-16.83833819 113.24249271 -18.07612141 110.70797468 -19.3828125 107.67578125 C-20.04990234 106.13374023 -20.04990234 106.13374023 -20.73046875 104.56054688 C-21.19066406 103.48869141 -21.65085938 102.41683594 -22.125 101.3125 C-22.82689453 99.68731445 -22.82689453 99.68731445 -23.54296875 98.02929688 C-24.697948 95.3539878 -25.85017961 92.6775294 -27 90 C-27.99 90 -28.98 90 -30 90 C-34 90 -34 90 -37 89 C-43.95066551 88.59610998 -50.43434692 88.5569663 -57 91 C-56.67 89.35 -56.34 87.7 -56 86 C-54.02 85.34 -52.04 84.68 -50 84 C-52.73538532 82.17640979 -55.48338606 80.79010485 -58.44677734 79.38525391 C-66.96023611 75.32009208 -74.27891311 70.72108689 -81 64 C-81.14695312 64.6290625 -81.29390625 65.258125 -81.4453125 65.90625 C-83.11844068 72.29106099 -85.45888235 77.15529788 -90 82 C-90.99 82.495 -90.99 82.495 -92 83 C-91.24074219 83.12117188 -90.48148437 83.24234375 -89.69921875 83.3671875 C-88.70535156 83.53476563 -87.71148437 83.70234375 -86.6875 83.875 C-85.70136719 84.03742188 -84.71523437 84.19984375 -83.69921875 84.3671875 C-81 85 -81 85 -78 87 C-78 88.32 -78 89.64 -78 91 C-78.86625 90.67 -79.7325 90.34 -80.625 90 C-87.32767161 88.08103471 -95.58712652 87.84422935 -102.18359375 90.078125 C-105.07102779 91.02324904 -106.22094917 91.06886571 -109 90 C-109.350625 91.134375 -109.70125 92.26875 -110.0625 93.4375 C-112.60656366 101.11909026 -115.87449284 108.54159797 -119 116 C-119.33 116 -119.66 116 -120 116 C-120 107.75 -120 99.5 -120 91 C-130.65450084 89.4759746 -130.65450084 89.4759746 -139 93 C-141.79245093 95.45817955 -141.79245093 95.45817955 -144 98 C-144.99 98.99 -144.99 98.99 -146 100 C-146.144375 98.88625 -146.28875 97.7725 -146.4375 96.625 C-147.7075465 91.35804246 -151.07144311 88.24780841 -154.80859375 84.4921875 C-159.38758782 79.28470405 -160.71017868 74.59043648 -160.453125 67.796875 C-159.1384862 59.68238036 -153.3967772 55.28669007 -147.125 50.6875 C-146.52921143 50.27878662 -145.93342285 49.87007324 -145.31958008 49.44897461 C-143.4205371 48.15277419 -143.4205371 48.15277419 -141 46 C-141 44.68 -141 43.36 -141 42 C-142.46620964 40.72928498 -143.93858053 39.46354318 -145.46484375 38.265625 C-148.45591289 35.7997054 -149.70159132 33.49714442 -150.45703125 29.70703125 C-150.78638717 26.01712851 -150.85605312 23.20898731 -148.6640625 20.11328125 C-146.54826067 18.19834668 -144.3617734 16.60402302 -142 15 C-140.98550781 14.30261719 -139.97101563 13.60523438 -138.92578125 12.88671875 C-137.26083141 11.74374914 -135.59414542 10.6042257 -133.91894531 9.47631836 C-130.36017917 7.05105099 -127.18870224 4.45624396 -124.0625 1.5 C-90.19049852 -29.80428524 -34.74094875 -29.07122591 0 0 Z " fill="#2C1B18" transform="translate(195,56)"/>
<path d="M0 0 C0.69222656 0.52787109 0.69222656 0.52787109 1.3984375 1.06640625 C2.79939766 2.1268168 4.20627071 3.1794361 5.6171875 4.2265625 C7.15561901 5.37155906 8.68268759 6.53205901 10.1953125 7.7109375 C17.53338745 13.20827501 25.56617274 16.55740798 34 20 C31.53721199 22.46278801 29.29323018 22.99771255 26 24 C26 24.99 26 25.98 26 27 C26.8559375 26.67515625 27.711875 26.3503125 28.59375 26.015625 C32.08531323 24.97456257 34.86917938 24.73271038 38.5 24.75 C39.5828125 24.74484375 40.665625 24.7396875 41.78125 24.734375 C45.13574256 25.01120206 47.86306413 25.80947615 51 27 C51.66 26.34 52.32 25.68 53 25 C56.04945206 27.77938988 57.78222679 30.18066462 59.359375 33.984375 C59.75253906 34.91894531 60.14570313 35.85351562 60.55078125 36.81640625 C60.94652344 37.78449219 61.34226562 38.75257813 61.75 39.75 C62.16121094 40.73355469 62.57242188 41.71710938 62.99609375 42.73046875 C64.00624427 45.15013163 65.00715852 47.57319542 66 50 C66.01401855 49.11477661 66.01401855 49.11477661 66.02832031 48.21166992 C66.08202657 45.53609795 66.16566852 42.86227447 66.25 40.1875 C66.26417969 39.25873047 66.27835938 38.32996094 66.29296875 37.37304688 C66.32519531 36.48037109 66.35742188 35.58769531 66.390625 34.66796875 C66.41157227 33.84578857 66.43251953 33.0236084 66.45410156 32.17651367 C67 30 67 30 68.84912109 28.2331543 C73.36705129 25.64290851 78.96933993 26.54836967 84 27 C89.98993475 28.92533617 93.36426284 32.96220242 96.3125 38.4375 C98.11649806 45.16149276 96.69227934 49.7904267 93.5 55.7578125 C90.77091514 59.8372258 87.64209412 61.45263529 83 63 C80.80078125 63.2734375 80.80078125 63.2734375 78.3125 63.375 C77.50425781 63.42398438 76.69601563 63.47296875 75.86328125 63.5234375 C71.62080214 62.74786833 68.50860323 60.42528157 65 58 C64.99589111 58.83660156 64.99178223 59.67320312 64.98754883 60.53515625 C64.96039001 63.6742806 64.91111856 66.81210439 64.84741211 69.95068359 C64.81313033 71.96300021 64.80379225 73.97569219 64.79492188 75.98828125 C64.57818798 85.57273552 62.9637259 90.6190398 56.625 97.625 C55.75875 98.40875 54.8925 99.1925 54 100 C53.52175781 100.47050781 53.04351562 100.94101563 52.55078125 101.42578125 C40.10812461 113.08512294 24.49359879 115.80455513 8.1015625 115.33984375 C-6.99780381 114.56075416 -19.55595197 106.99022068 -30.09765625 96.46875 C-36.10771271 88.66925168 -36.52870062 82.25452153 -36.25 72.5 C-36.23195313 71.29601562 -36.21390625 70.09203125 -36.1953125 68.8515625 C-36.14846554 65.90020395 -36.08288005 62.95052964 -36 60 C-37.3303125 60.73089844 -37.3303125 60.73089844 -38.6875 61.4765625 C-44.23485519 64.02782255 -49.49001711 63.82057133 -55.25 61.9375 C-60.10653727 58.51584874 -63.29722268 55.66349396 -64.85546875 49.7578125 C-66.31682156 40.95046468 -66.31682156 40.95046468 -65 37 C-64.34 37 -63.68 37 -63 37 C-62.814375 36.278125 -62.62875 35.55625 -62.4375 34.8125 C-60.42609646 30.87714525 -57.97755079 28.89024891 -54 27 C-47.79778545 25.48129027 -44.17824492 25.94058503 -38 28 C-37.67 35.59 -37.34 43.18 -37 51 C-33.7 43.08 -30.4 35.16 -27 27 C-25.02 27 -23.04 27 -21 27 C-20.35675781 26.67644531 -19.71351562 26.35289062 -19.05078125 26.01953125 C-13.92092843 23.46926156 -5.94509979 24.19509911 -0.52734375 25.67578125 C1.375 26.5 1.375 26.5 4 28 C3.96877057 26.03243548 3.96877057 26.03243548 3 24 C-1.4918014 21.9184335 -6.12801522 21.50399843 -11 21 C-10.60167969 20.55269531 -10.20335937 20.10539062 -9.79296875 19.64453125 C-4.24467718 13.3132691 -1.53621947 8.29558514 0 0 Z " fill="#BE7E4F" transform="translate(113,119)"/>
<path d="M0 0 C0.99 0.495 0.99 0.495 2 1 C1.98043986 5.12680627 1.92830608 9.25185864 1.84741211 13.37792969 C1.82437492 14.77820407 1.8098702 16.17864821 1.80444336 17.57910156 C1.75706309 27.79866129 0.52648204 33.99704617 -6.375 41.625 C-7.24125 42.40875 -8.1075 43.1925 -9 44 C-9.47824219 44.47050781 -9.95648438 44.94101563 -10.44921875 45.42578125 C-22.89187539 57.08512294 -38.50640121 59.80455513 -54.8984375 59.33984375 C-69.99780381 58.56075416 -82.55595197 50.99022068 -93.09765625 40.46875 C-99.13447839 32.63451676 -99.63629449 25.78901098 -99.75 16 C-99.77964844 14.74832031 -99.80929688 13.49664062 -99.83984375 12.20703125 C-99.91012788 9.13795759 -99.96303192 6.06962548 -100 3 C-99.34 3 -98.68 3 -98 3 C-97.9906543 3.59949463 -97.98130859 4.19898926 -97.97167969 4.81665039 C-97.91757724 7.56606267 -97.83401203 10.31384552 -97.75 13.0625 C-97.73582031 14.00544922 -97.72164063 14.94839844 -97.70703125 15.91992188 C-97.38256914 25.23198441 -94.10986305 30.59501976 -87.390625 37.015625 C-82.95236504 40.69967085 -78.15086964 43.43430831 -73 46 C-72.13246094 46.43699219 -71.26492187 46.87398437 -70.37109375 47.32421875 C-57.85549087 52.51628108 -40.41247285 52.00320127 -27.78515625 47.26171875 C-16.9882143 42.37053747 -5.82987041 36.4822906 -1 25 C-0.28598149 20.66276257 -0.21012554 16.38935491 -0.1875 12 C-0.16236328 10.84371094 -0.13722656 9.68742188 -0.11132812 8.49609375 C-0.052808 5.66371972 -0.01626991 2.83287881 0 0 Z " fill="#97643F" transform="translate(176,175)"/>
<path d="M0 0 C0.66 0 1.32 0 2 0 C3.49821059 3.37097383 4 5.20442119 4 9 C7.63 9 11.26 9 15 9 C15 9.66 15 10.32 15 11 C9.58823529 15 9.58823529 15 7 15 C7.99 18.63 8.98 22.26 10 26 C8.30729167 24.95833333 6.61458333 23.91666667 4.921875 22.875 C2.74520615 21.72375977 2.74520615 21.72375977 -1 22 C-2.36161311 22.96113866 -3.69855198 23.95884159 -5 25 C-5.66 25 -6.32 25 -7 25 C-6.67 21.7 -6.34 18.4 -6 15 C-7.155 14.195625 -8.31 13.39125 -9.5 12.5625 C-10.68653894 11.73616038 -11.8588092 10.88791631 -13 10 C-13 9.67 -13 9.34 -13 9 C-9.37 9 -5.74 9 -2 9 C-1.34 6.03 -0.68 3.06 0 0 Z " fill="#F9E1AD" transform="translate(102,150)"/>
<path d="M0 0 C2.6855594 2.6855594 3.06049974 5.37621328 4 9 C7.63 9 11.26 9 15 9 C12.33333333 11.66666667 9.66666667 14.33333333 7 17 C7.33 17.763125 7.66 18.52625 8 19.3125 C9 22 9 22 9 25 C5.9168649 23.80100302 2.93720508 22.52299523 0 21 C-3.465 23.475 -3.465 23.475 -7 26 C-8 24 -8 24 -7.44140625 21.8359375 C-7.00634766 20.61777344 -7.00634766 20.61777344 -6.5625 19.375 C-6.27503906 18.55773437 -5.98757812 17.74046875 -5.69140625 16.8984375 C-5.34916016 15.95871094 -5.34916016 15.95871094 -5 15 C-6.1446875 14.566875 -6.1446875 14.566875 -7.3125 14.125 C-10 13 -10 13 -13 11 C-13 10.34 -13 9.68 -13 9 C-9.37 9 -5.74 9 -2 9 C-1.34 6.03 -0.68 3.06 0 0 Z " fill="#FAE2AE" transform="translate(150,150)"/>
<path d="M0 0 C3.40513815 0.099239 4.217095 0.45784656 7.1875 2.5 C9.70680235 6.20022533 9.8941341 8.0406656 9.1875 12.4375 C7.39187595 15.19079021 6.13495078 16.96377461 3.1875 18.4375 C-0.48636532 18.84570726 -2.36536137 18.68591035 -5.625 16.875 C-8.49050813 13.68200523 -8.8125 11.69630812 -8.8125 7.4375 C-6.66760326 2.84129271 -5.17481993 0.5938318 0 0 Z " fill="#F68786" transform="translate(91.8125,174.5625)"/>
<path d="M0 0 C4.76862544 -0.33334081 8.72195437 -0.58790099 13.125 1.4375 C15.49627681 4.67824498 15.77954545 6.84379883 15.55078125 10.8046875 C14.92688235 13.29143349 14.24619682 14.33448183 12.375 16.0625 C8.69649662 18.17423342 7.13621019 18.88004472 3 18 C0.125 16.0625 0.125 16.0625 -2 13 C-2.83919828 8.1378409 -2.43214578 4.3075353 0 0 Z " fill="#F68886" transform="translate(158,175)"/>
<path d="M0 0 C0.33 0 0.66 0 1 0 C1.33 8.58 1.66 17.16 2 26 C1.34 26.33 0.68 26.66 0 27 C-0.33 26.34 -0.66 25.68 -1 25 C-1.639375 25.33 -2.27875 25.66 -2.9375 26 C-7.03279822 27.33724024 -10.73672636 27.76214948 -15 27 C-17.625 24.9375 -17.625 24.9375 -19 22 C-18.68421053 15.68421053 -18.68421053 15.68421053 -17 14 C-16.87625 12.88625 -16.7525 11.7725 -16.625 10.625 C-16 7 -16 7 -14.8125 5.0625 C-11.99452602 3.41058422 -10.20595185 3.4870477 -7 4 C-4.1875 6.4375 -4.1875 6.4375 -2 9 C-1.67 9.33 -1.34 9.66 -1 10 C-0.67 6.7 -0.34 3.4 0 0 Z M-15 8 C-14.67 9.65 -14.34 11.3 -14 13 C-11.03 13.495 -11.03 13.495 -8 14 C-7.67 15.32 -7.34 16.64 -7 18 C-9.64 17.01 -12.28 16.02 -15 15 C-17.31563087 16.88500271 -17.31563087 16.88500271 -17.25 20 C-17.31563087 23.11499729 -17.31563087 23.11499729 -15 25 C-10.47424298 25.61678459 -6.21966127 25.39029161 -1.875 24 C0.35219386 21.98586023 0.35219386 21.98586023 0.6875 18.25 C0.40864955 13.93976872 -1.32405633 11.40957642 -4.27734375 8.3515625 C-8.19447665 5.27825642 -10.9895652 5.3263768 -15 8 Z " fill="#9E6942" transform="translate(74,147)"/>
<path d="M0 0 C4.82974684 1.76471519 4.82974684 1.76471519 6.25 4.1875 C6.29080783 6.18708364 6.29254356 8.18795254 6.25 10.1875 C6.91 10.8475 7.57 11.5075 8.25 12.1875 C8.66652031 15.93618276 8.7479164 18.30483001 6.875 21.625 C2.80108148 24.0499515 -1.13810195 24.08901803 -5.75 23.1875 C-8.02979455 21.7266117 -9.09659752 20.39203665 -10.75 18.1875 C-10.13125 18.5175 -9.5125 18.8475 -8.875 19.1875 C-4.52548869 20.57934362 -0.28748195 20.54881801 4.25 20.1875 C5.66577477 19.00325674 5.66577477 19.00325674 5.3125 15.625 C5.2815625 13.9234375 5.2815625 13.9234375 5.25 12.1875 C4.5075 12.538125 3.765 12.88875 3 13.25 C0.1177274 14.23259293 -0.96176345 14.2201802 -3.75 13.1875 C-3.42 11.8675 -3.09 10.5475 -2.75 9.1875 C-0.77 8.8575 1.21 8.5275 3.25 8.1875 C2.92 6.5375 2.59 4.8875 2.25 3.1875 C-2.51715198 3.24378042 -2.51715198 3.24378042 -6.328125 5.8125 C-7.55796624 7.56537717 -8.69469135 9.32490456 -9.75 11.1875 C-10.08 10.1975 -10.41 9.2075 -10.75 8.1875 C-8.09168465 3.53544814 -5.46670561 0.27333528 0 0 Z " fill="#A06A42" transform="translate(193.75,150.8125)"/>
<path d="M0 0 C0 1.32 0 2.64 0 4 C-0.85722656 3.67515625 -1.71445313 3.3503125 -2.59765625 3.015625 C-10.19213955 0.74861506 -18.59485885 1.24459864 -26 4 C-25.67 2.35 -25.34 0.7 -25 -1 C-16.99537489 -4.67780072 -8.12564804 -2.29971171 0 0 Z " fill="#130C08" transform="translate(164,143)"/>
<path d="M0 0 C1.65018367 0.70770072 3.26026194 1.50765038 4.859375 2.32421875 C4.859375 3.64421875 4.859375 4.96421875 4.859375 6.32421875 C3.88871094 5.99679688 2.91804688 5.669375 1.91796875 5.33203125 C-2.4417176 4.08640658 -6.57438472 4.09887835 -11.078125 4.19921875 C-11.85736328 4.20824219 -12.63660156 4.21726563 -13.43945312 4.2265625 C-15.33997947 4.24988184 -17.24034508 4.28574289 -19.140625 4.32421875 C-13.11615197 -0.40929577 -7.59034749 -2.39622284 0 0 Z " fill="#130D08" transform="translate(112.140625,140.67578125)"/>
<path d="M0 0 C0.804375 0.495 0.804375 0.495 1.625 1 C4.6042758 2.25443192 6.79316197 2.27292239 10 2 C10.99 1.34 11.98 0.68 13 0 C12.6875 2.375 12.6875 2.375 12 5 C9 7 9 7 5.4375 6.8125 C2 6 2 6 0 3 C0 2.01 0 1.02 0 0 Z " fill="#9B6740" transform="translate(122,179)"/>
<path d="M0 0 C0.99 0.33 1.98 0.66 3 1 C1.87720538 1.98169476 0.75168527 2.96027298 -0.375 3.9375 C-1.31472656 4.75541016 -1.31472656 4.75541016 -2.2734375 5.58984375 C-5.31264967 8.07209622 -7.27097651 8.11191056 -11.125 8.0625 C-12.03507812 8.05347656 -12.94515625 8.04445312 -13.8828125 8.03515625 C-14.58148438 8.02355469 -15.28015625 8.01195312 -16 8 C-16 7.34 -16 6.68 -16 6 C-15.12988281 5.96132812 -15.12988281 5.96132812 -14.2421875 5.921875 C-8.23859586 5.48597066 -4.36043457 4.36043457 0 0 Z " fill="#170F09" transform="translate(139,202)"/>
</svg>
