<svg xmlns="http://www.w3.org/2000/svg" viewBox="0 0 440 440" fill="none" shape-rendering="auto"><metadata xmlns:rdf="http://www.w3.org/1999/02/22-rdf-syntax-ns#" xmlns:xsi="http://www.w3.org/2001/XMLSchema-instance" xmlns:dc="http://purl.org/dc/elements/1.1/" xmlns:dcterms="http://purl.org/dc/terms/"><rdf:RDF><rdf:Description><dc:title>Face Generator</dc:title><dc:creator>The Visual Team</dc:creator><dc:source xsi:type="dcterms:URI">https://www.figma.com/community/file/986078800058673824</dc:source><dcterms:license xsi:type="dcterms:URI">https://creativecommons.org/licenses/by/4.0/</dcterms:license><dc:rights>Remix of „Face Generator” (https://www.figma.com/community/file/986078800058673824) by „The Visual Team”, licensed under „CC BY 4.0” (https://creativecommons.org/licenses/by/4.0/)</dc:rights></rdf:Description></rdf:RDF></metadata><mask id="viewboxMask"><rect width="440" height="440" rx="0" ry="0" x="0" y="0" fill="#fff" /></mask><g mask="url(#viewboxMask)"><rect fill="#b6e3f4" width="440" height="440" x="0" y="0" /><g transform="matrix(.71048 0 0 .71048 24 2)"><g fill="#724133"><path d="M431 317.5v-8a155.5 155.5 0 0 0-311 0v8a155.5 155.5 0 0 0 311 0Z"/><path d="M94.5 288.5c4.6 30.3 15.8 96.2 45.5 133 47.3 72.2 259.1 111.6 289.2-23.2C468 224.5 449.7 138 334 138c-96 0-140.2 19.5-156.5 51.5-38-28-91.5 43.5-83 99Z"/></g></g><g transform="translate(81.7 150.7) scale(.71856)"><path d="M190.5 37C120.6 37 64 102.1 64 182.5a170.3 170.3 0 0 0 0 3C64 265.8 120.6 361 190.5 361S317 265.8 317 185.5a182.4 182.4 0 0 0 0-3C317 102 260.4 37 190.5 37Z" fill="#c07f50"/><path d="M64 181.5v4C64 265.8 120.6 361 190.5 361S317 265.8 317 185.5v-4C315 261 259.2 353 190.5 353S65.9 261 64 181.5Z" fill="#000" fill-opacity=".2"/></g><g transform="translate(199.5 333.4) scale(.71856)"><path fill-rule="evenodd" clip-rule="evenodd" d="M59.2 13 63.7 9a3.2 3.2 0 0 1 4 5l-4.1 3.5-2.3 2a49 49 0 0 1-33.7 11.8 51 51 0 0 1-38.3-17.8 3.2 3.2 0 0 1 5-4c4 5 16.3 15.4 33.3 15.4 11 0 17.7-2.3 22.7-5.2a48 48 0 0 0 9-6.9Z" fill="#000"/></g><g transform="translate(280.7 235.4) scale(.71856)"><rect x="23" y="20" width="88" height="88.1" rx="44" fill="#c07f50"/><path d="M47.6 57.5c2.5-6 18-32 34.5-17.2 12.7 11.3-15 33.2-16.5 22.2C64 51.5 99 52 89 78.5 84.8 90 62 91 47.6 77" stroke="#000" stroke-opacity=".2" stroke-width="4" stroke-linecap="round" stroke-linejoin="round"/></g><g transform="matrix(-.71856 0 0 .71856 161.5 235.4)"><rect x="23" y="20" width="88" height="88.1" rx="44" fill="#c07f50"/><path d="M47.6 57.5c2.5-6 18-32 34.5-17.2 12.7 11.3-15 33.2-16.5 22.2C64 51.5 99 52 89 78.5 84.8 90 62 91 47.6 77" stroke="#000" stroke-opacity=".2" stroke-width="4" stroke-linecap="round" stroke-linejoin="round"/></g><g transform="translate(114.8 215.5) scale(.71856)"><path d="M51 66.6c6.9-2.2 17.4-6.6 38-6.6 17.6 0 32.3 4.9 35 6.6M164 66.6c6.9-2.2 17.4-6.6 38-6.6 17.6 0 32.3 4.9 35 6.6" stroke="#000" stroke-width="3.7" stroke-linecap="round"/><path d="M120.6 94.8s-24 11.6-35.4 11.6c-11.4 0-30.9-11.6-30.9-11.6s21.8-11.6 33.2-11.6c11.3 0 33.1 11.6 33.1 11.6ZM233.6 94.8s-24 11.6-35.4 11.6c-11.4 0-30.9-11.6-30.9-11.6s21.8-11.6 33.2-11.6c11.3 0 33.1 11.6 33.1 11.6Z" fill="#fff"/><circle cx="89.1" cy="94.8" r="11.6" fill="#000"/><circle cx="198.8" cy="94.8" r="11.6" fill="#000"/></g><g transform="translate(127.7 288.7) scale(.71856)"></g><g transform="translate(193 279.4) scale(.71856)"><path d="M5.6 34.4a17 17 0 0 0 16.3 21.4h33.7A16.9 16.9 0 0 0 72 34.4C70 41.6 63.4 47 55.6 47H22c-7.8 0-14.4-5.3-16.3-12.5Z" fill="#000" fill-opacity=".2"/></g><g transform="matrix(.52237 0 0 .52237 122.9 244.8)"></g><g transform="matrix(-.52237 0 0 .52237 315.7 244.8)"></g><g transform="matrix(.52237 0 0 .52237 108.7 145.6)"><path d="M375 133c6.5 15.9 11.5 34.5 11.5 70-11 0-47.9-4.6-107.3-23-59.5-18.4-101.6-50-114.7-69.5.3 6 0 34-19.7 55A124.2 124.2 0 0 1 39 203c0-23.1 2-46 10.9-67.4A176 176 0 0 1 212 27a175 175 0 0 1 124 51.5c16.4 16.4 30.2 33.1 39 54.5Z" fill="#724133"/></g></g></svg>