<svg xmlns="http://www.w3.org/2000/svg" viewBox="0 0 440 440" fill="none" shape-rendering="auto" width="512" height="512"><metadata xmlns:rdf="http://www.w3.org/1999/02/22-rdf-syntax-ns#" xmlns:xsi="http://www.w3.org/2001/XMLSchema-instance" xmlns:dc="http://purl.org/dc/elements/1.1/" xmlns:dcterms="http://purl.org/dc/terms/"><rdf:RDF><rdf:Description><dc:title>Face Generator</dc:title><dc:creator>The Visual Team</dc:creator><dc:source xsi:type="dcterms:URI">https://www.figma.com/community/file/986078800058673824</dc:source><dcterms:license xsi:type="dcterms:URI">https://creativecommons.org/licenses/by/4.0/</dcterms:license><dc:rights>Remix of „Face Generator” (https://www.figma.com/community/file/986078800058673824) by „The Visual Team”, licensed under „CC BY 4.0” (https://creativecommons.org/licenses/by/4.0/)</dc:rights></rdf:Description></rdf:RDF></metadata><mask id="viewboxMask"><rect width="440" height="440" rx="0" ry="0" x="0" y="0" fill="#fff" /></mask><g mask="url(#viewboxMask)"><rect fill="#c0aede" width="440" height="440" x="0" y="0" /><g transform="matrix(.71048 0 0 .71048 24 2)"><g fill="#b58143"><path d="M431 317.5v-8a155.5 155.5 0 0 0-311 0v8a155.5 155.5 0 0 0 311 0Z"/><path d="M94.5 288.5c4.6 30.3 15.8 96.2 45.5 133 47.3 72.2 259.1 111.6 289.2-23.2C468 224.5 449.7 138 334 138c-96 0-140.2 19.5-156.5 51.5-38-28-91.5 43.5-83 99Z"/></g></g><g transform="translate(81.7 150.7) scale(.71856)"><ellipse cx="190" cy="198.5" rx="132" ry="152.5" fill="#f8b788"/><path d="M322 192.4c-2.6 81.6-60.7 146.8-132 146.8-71.2 0-129.3-65.2-132-146.8v5.9c0 84.2 59.1 152.6 132 152.6 73 0 132.1-68.4 132.1-152.6v-5.9Z" fill="#000" fill-opacity=".2"/></g><g transform="translate(199.5 333.4) scale(.71856)"><path d="M59 15.6a31 31 0 1 1-62 0c0-17.1 13.8-4.1 31-4.1 17 0 31-13 31 4Z" fill="#F9F9F9"/></g><g transform="translate(280.7 235.4) scale(.71856)"><rect x="21" y="21" width="88.1" height="88.1" rx="44.1" fill="#f8b788"/><path d="M87 43 42.5 84.5" stroke="#000" stroke-opacity=".2" stroke-width="5" stroke-linecap="round" stroke-linejoin="round"/></g><g transform="matrix(-.71856 0 0 .71856 161.5 235.4)"><rect x="21" y="21" width="88.1" height="88.1" rx="44.1" fill="#f8b788"/><path d="M87 43 42.5 84.5" stroke="#000" stroke-opacity=".2" stroke-width="5" stroke-linecap="round" stroke-linejoin="round"/></g><g transform="translate(114.8 215.5) scale(.71856)"><path d="M58.7 45.3A60 60 0 0 1 91.4 36c18 0 34.8 7.8 32.6 9.3 0 18-3.3 0-31.6 0-30.5 0-33.7 18-33.7 0ZM165.7 45.3a60 60 0 0 1 32.7-9.3c18 0 34.8 7.8 32.6 9.3 0 18-3.3 0-31.6 0-30.5 0-33.7 18-33.7 0Z" fill="#000"/><path d="M87.3 69.1a4.1 4.1 0 0 1 7.8 0l3.3 10a4.1 4.1 0 0 0 4 3h10.5c4 0 5.7 5 2.4 7.4l-8.5 6.2c-1.5 1-2 3-1.5 4.6l3.2 10c1.3 3.9-3 7-6.3 4.7l-8.6-6.2c-1.4-1-3.4-1-4.8 0l-8.6 6.2a4.1 4.1 0 0 1-6.3-4.6l3.2-10c.6-1.8 0-3.6-1.5-4.7l-8.5-6.2a4.1 4.1 0 0 1 2.4-7.5h10.6c1.8 0 3.4-1.1 4-2.8l3.2-10ZM194.8 69.1a4.1 4.1 0 0 1 8 0l3.2 10a4.1 4.1 0 0 0 4 3h10.5c4 0 5.7 5 2.4 7.4l-8.5 6.2c-1.5 1-2 3-1.5 4.6l3.2 10c1.3 3.9-3.1 7-6.3 4.7l-8.6-6.2c-1.4-1-3.4-1-4.9 0l-8.5 6.2a4.1 4.1 0 0 1-6.4-4.6l3.3-10c.6-1.8 0-3.6-1.5-4.7l-8.5-6.2A4.1 4.1 0 0 1 177 82h10.5c1.8 0 3.4-1.1 4-2.8l3.2-10Z" fill="#FFEBB7"/></g><g transform="translate(127.7 288.7) scale(.71856)"></g><g transform="translate(193 279.4) scale(.71856)"><path d="M17.2 34.5a17 17 0 0 0-.2 2.4v3.3C17 49.5 24.6 57 33.9 57H44C53.4 57 61 49.5 61 40V37c0-.8 0-1.6-.2-2.4a16.9 16.9 0 0 1-16.7 14.4H34c-8.5 0-15.6-6.2-16.7-14.4Z" fill="#000" fill-opacity=".2"/></g><g transform="matrix(.52237 0 0 .52237 122.9 244.8)"><path d="M10 94V8h32l-3.7 76.9L10 94Z" fill="#b58143"/></g><g transform="matrix(-.52237 0 0 .52237 315.7 244.8)"><path d="M10 94V8h32l-3.7 76.9L10 94Z" fill="#b58143"/></g><g transform="matrix(.52237 0 0 .52237 108.7 145.6)"></g></g></svg>
