<svg xmlns="http://www.w3.org/2000/svg" viewBox="0 0 440 440" fill="none" shape-rendering="auto"><metadata xmlns:rdf="http://www.w3.org/1999/02/22-rdf-syntax-ns#" xmlns:xsi="http://www.w3.org/2001/XMLSchema-instance" xmlns:dc="http://purl.org/dc/elements/1.1/" xmlns:dcterms="http://purl.org/dc/terms/"><rdf:RDF><rdf:Description><dc:title>Face Generator</dc:title><dc:creator>The Visual Team</dc:creator><dc:source xsi:type="dcterms:URI">https://www.figma.com/community/file/986078800058673824</dc:source><dcterms:license xsi:type="dcterms:URI">https://creativecommons.org/licenses/by/4.0/</dcterms:license><dc:rights>Remix of „Face Generator” (https://www.figma.com/community/file/986078800058673824) by „The Visual Team”, licensed under „CC BY 4.0” (https://creativecommons.org/licenses/by/4.0/)</dc:rights></rdf:Description></rdf:RDF></metadata><mask id="viewboxMask"><rect width="440" height="440" rx="0" ry="0" x="0" y="0" fill="#fff" /></mask><g mask="url(#viewboxMask)"><g transform="matrix(.71048 0 0 .71048 24 2)"><g fill="#b58143"><path d="M83.6 337.2c11.2 73.5 27.2 93.7 57 130.5 47.2 72.2 222.4 105.8 289-15.2 109-197.3-24.8-183.3-140.6-183.3-96 0-132.1-32-148.4 0-38-28-65.5 12.5-57 68Z"/><path d="M99.9 245c-8.8 46.2-3.7 65.5 0 69.4 47 69.5 273.3 129.3 336.2 17.4 50.4-89.6-6.7-176.2-41.5-208.4 2 2.6 7.6 12.4 4.7 29.6a34.7 34.7 0 0 1-13.5 23.8c1.3-11.8 6.1-40.5-3-59.8-11.6-24.5-23.8-33.3-36.5-39.3 6 18.7 8.2 27.7 6.5 39.3-1.7 11.5-12.1 31.7-20.1 36 3.8-14.5 4.8-36-2.2-55.5-11.3-31.4-31.5-46.1-44.8-50.6 1 2.7 6 24.3 4.3 43-2.6 29.6-13.5 39.6-17.5 44.6 4-9.5 6-25 4-43-3.5-31.2-34.1-52.4-43.6-57.5 1.5 6.6 2.1 37-4 63.7C223 123.4 211 137 198 153c3.5-9.5 2-24-4-41-5.1-14.6-10.9-17.3-15.2-22 .2 7-2.2 27.5-13 52.7-13.5 31.5-18.5 56.6-18.5 43v-43A254.4 254.4 0 0 0 100 244.9Z"/></g></g><g transform="translate(81.7 150.7) scale(.71856)"><path d="M191 39c103.2 3 112.2 97.8 114 138.3.5 12.7 3.3 23.8 6 34.9 3.3 13 6.5 26 6 41 .5 14.7-2.3 31.1-12 51.8-12.8 27-64.4 56-114 56-52.2 0-102.3-30.5-115.6-65.1A142.3 142.3 0 0 1 64 239.5c-.6-16.8 3-29.7 6.5-42.3 1.8-6.5 3.6-13 4.8-20 .7-4.1 1.3-9.3 2-15.3C82 119 91 39 191 39Z" fill="#da9969"/><path d="M64.5 233c-1.6 16.1.3 35.5 10.9 62.9C88.7 330.5 138.8 361 191 361c49.6 0 101.2-29 114-56a105.2 105.2 0 0 0 11.3-60.2 118.6 118.6 0 0 1-11.5 38.6c-12.8 27-64.4 56-114 56-52.1 0-102.3-30.6-115.6-65.1A164.3 164.3 0 0 1 64.5 233Z" fill="#000" fill-opacity=".2"/></g><g transform="translate(199.5 333.4) scale(.71856)"><path fill-rule="evenodd" clip-rule="evenodd" d="M-1.7 8c1.5-.2 2.9.9 3 2.4.8 5.2 8.4 18.8 37.2 20.2a2.7 2.7 0 1 1-.2 5.4C7.9 34.5-3 19.7-4 11c-.2-1.4.9-2.8 2.3-3Z" fill="#000"/></g><g transform="translate(280.7 235.4) scale(.71856)"><rect x="20" y="22" width="88" height="88.1" rx="44" fill="#da9969"/><rect x="29.8" y="31.8" width="68.4" height="68.5" rx="34.2" fill="#000" fill-opacity=".2"/><rect x="23.9" y="49.4" width="37.2" height="37.2" rx="18.6" fill="#da9969"/></g><g transform="matrix(-.71856 0 0 .71856 161.5 235.4)"><rect x="20" y="22" width="88" height="88.1" rx="44" fill="#da9969"/><rect x="29.8" y="31.8" width="68.4" height="68.5" rx="34.2" fill="#000" fill-opacity=".2"/><rect x="23.9" y="49.4" width="37.2" height="37.2" rx="18.6" fill="#da9969"/></g><g transform="translate(114.8 215.5) scale(.71856)"><path d="M171.2 63.2c4.3-3 11-9.2 24.1-9.2 11.1 0 20.4 6.8 22.1 9.2M71 63.2c4.4-3 11-9.2 24.1-9.2 11.1 0 20.4 6.8 22.1 9.2" stroke="#000" stroke-width="9.2" stroke-linecap="round"/><path d="M187.7 89.4a7 7 0 0 1 13.9 0v14a7 7 0 1 1-13.9 0v-14ZM87.5 89.4a7 7 0 1 1 13.9 0v14a7 7 0 0 1-13.9 0v-14Z" fill="#000"/></g><g transform="translate(127.7 288.7) scale(.71856)"><g fill="#FFC6C6"><rect x="11" y="16" width="56.3" height="43.4" rx="21.7"/><rect x="191" y="16" width="56.3" height="43.4" rx="21.7"/></g></g><g transform="translate(193 279.4) scale(.71856)"><path d="M33.4 22c-7.1 9.5-12 31.5-7.8 33.5 4.2 2.1 10.4 0 17 0" stroke="#000" stroke-opacity=".5" stroke-width="4" stroke-linecap="round" stroke-linejoin="round"/></g><g transform="matrix(.52237 0 0 .52237 122.9 244.8)"><path d="M11 103V7.5h40L11 103Z" fill="#b58143"/></g><g transform="matrix(-.52237 0 0 .52237 315.7 244.8)"><path d="M11 103V7.5h40L11 103Z" fill="#b58143"/></g><g transform="matrix(.52237 0 0 .52237 108.7 145.6)"><g fill="#b58143"><path d="M276 196.5a63.5 63.5 0 0 0-18.6-45c-5.9-5.8-12.9-61-20.6-64.2a63.5 63.5 0 0 0-48.6 0c-7.7 3.2-14.7 58.4-20.6 64.3a63.5 63.5 0 0 0-18.6 44.9h127Z"/><path d="M374 132c6.5 15.9 11.5 34.5 11.5 70-11 0-38.5 11-92.5-18-54.8-29.5-68.9-59.5-82-79-13 27-37 51.3-72.5 73.5C103 200.7 54.2 199.5 38 202c0-23.1 2-46 10.9-67.4A176 176 0 0 1 211 26a175 175 0 0 1 124 51.5c16.4 16.4 30.2 33.1 39 54.5Z"/></g></g></g></svg>