<svg xmlns="http://www.w3.org/2000/svg" viewBox="0 0 440 440" fill="none" shape-rendering="auto"><metadata xmlns:rdf="http://www.w3.org/1999/02/22-rdf-syntax-ns#" xmlns:xsi="http://www.w3.org/2001/XMLSchema-instance" xmlns:dc="http://purl.org/dc/elements/1.1/" xmlns:dcterms="http://purl.org/dc/terms/"><rdf:RDF><rdf:Description><dc:title>Face Generator</dc:title><dc:creator>The Visual Team</dc:creator><dc:source xsi:type="dcterms:URI">https://www.figma.com/community/file/986078800058673824</dc:source><dcterms:license xsi:type="dcterms:URI">https://creativecommons.org/licenses/by/4.0/</dcterms:license><dc:rights>Remix of „Face Generator” (https://www.figma.com/community/file/986078800058673824) by „The Visual Team”, licensed under „CC BY 4.0” (https://creativecommons.org/licenses/by/4.0/)</dc:rights></rdf:Description></rdf:RDF></metadata><mask id="k8n80xxv"><rect width="440" height="440" rx="0" ry="0" x="0" y="0" fill="#fff" /></mask><g mask="url(#k8n80xxv)"><rect fill="url(#7w0tgcf1)" width="440" height="440" x="0" y="0" /><defs><linearGradient id="7w0tgcf1" gradientTransform="rotate(14 0.5 0.5)"><stop stop-color="#ffd5dc"/><stop offset="1" stop-color="#c0aede"/></linearGradient></defs><g transform="rotate(360, 220, 220)"><g transform="matrix(.71048 0 0 .71048 24 2)"><g fill="#2c1b18"><path d="M431 317.5v-8a155.5 155.5 0 0 0-311 0v8a155.5 155.5 0 0 0 311 0Z"/><path d="M130.5 297.5c20.8 4.8 31 13.3 33.5 17 3.8 22.7 9.2 63 0 43S86.8 326.2 54 323c16.8-10.5 55.7-30.3 76.5-25.5Z"/><path d="M154.4 230.3c11.4 18 12.7 31.3 12 35.6-13.3 18.9-37.7 51.4-30.3 30.7 7.5-20.7-33-76.5-54-101.8 19.3 4.3 60.8 17.5 72.3 35.5ZM210 170.8c-1.7 21.3-8.6 32.6-11.9 35.6-21.8 7.2-60.9 18.5-42.5 6.4 18.4-12 19.6-81 17.9-114 12.8 15.2 38.2 50.7 36.5 72ZM290.8 148.8c-13.7 16.4-26 21.6-30.3 22.2-22-6.8-60.4-20.2-38.4-19.4 22 .8 62.8-54.7 80.4-82.6 1.8 19.8 2 63.4-11.7 79.8Z"/><path d="M358 207c-35.2 8-57 2.6-63.5-1.1-22.6-31.7-60.5-89.1-31.8-65.5 28.8 23.7 140.6-9.2 193-28.7-18 28.5-62.5 87.3-97.7 95.3Z"/><path d="M414 266.5c-19.6-8.4-28.1-18.6-30-22.6.3-23 2.1-63.6 7.7-42.3 5.5 21.3 70.4 44.4 102.1 53.3-18.4 7.4-60.1 20-79.8 11.6Z"/><path d="M403.7 339.5c-11.2-18.1-12.4-31.4-11.5-35.7 13.3-18.8 38.1-51 30.4-30.4-7.7 20.6 32.3 76.8 53.2 102.3-19.3-4.5-60.8-18-72-36.2ZM139.7 357.1c6.4-20.3 15.8-29.8 19.6-32 23-2 63.6-4 42.9 3.5-20.7 7.6-37.5 74.4-43.3 106.9-9.1-17.7-25.7-58-19.2-78.4ZM109.3 302.2c18.2 11.1 31.5 12.1 35.9 11.2 18.5-13.5 50.5-38.7 30-30.8-20.6 8-77.2-31.4-102.9-52 4.7 19.2 18.8 60.5 37 71.6ZM136 218.8c5.2 20.7 14 30.7 17.6 33.2 22.8 3.3 63.2 7.9 43-1-20.1-8.7-32.8-76.4-36.7-109.2-10.1 17-29.1 56.3-24 77ZM202.2 150.5c-8.3 19.7-7.3 33-5.8 37.1 16.2 16.4 45.8 44.3 35 25.2-11-19.2 19.6-81 36.2-109.5-18.4 7.6-57.2 27.5-65.4 47.2ZM307.7 127.5c-18 11.3-25 22.7-26.1 27 3.7 22.6 11.7 62.5 13.9 40.6 2.2-21.9 62.8-54.6 92.9-68.3-19.4-4.5-62.5-10.6-80.7.7ZM394.3 179.7c-21.3-2-33.7 2.9-37.2 5.6-10.8 20.3-28.6 56.9-13.6 40.8 15-16 83.1-5.4 115.3 2-12.7-15.3-43.3-46.4-64.5-48.4Z"/><path d="M435.7 265.6c-16-14.1-28.8-17.4-33.3-17.3-20.6 10-56.6 29.1-35 25 21.7-4.2 70.4 44.5 92.1 69.4-1.2-19.8-7.7-63-23.8-77ZM418.8 359.6c-5-20.8-13.7-30.9-17.3-33.3-22.8-3.6-63.1-8.6-43 .4 20 9 32.1 76.9 35.6 109.7 10.4-17 29.7-56 24.7-76.8ZM155.6 354.6c12.6-17.2 14.6-30.4 14.1-34.8-12-19.6-34.4-53.5-28.2-32.4 6.2 21.1-37.6 74.3-60.3 98.3 19.6-3.1 62-13.8 74.4-31Z"/></g></g><g transform="translate(81.7 150.7) scale(.71856)"><path d="M293.1 88.7C258 38.7 171.6 25.4 120.3 58 69 91 57.5 145.2 65 204.8c3.1 24.1 7 43 9 63.5 6.6 63.2 93 94.7 118.6 94.7 40.4 0 108.3-44.3 116.8-94.7 7.7-46 7-42.4 7.5-63.5.6-21 11.3-66.1-23.9-116.1Z" fill="#da9969"/><path d="M76.2 279.7c22.6 47.6 92.6 71.3 115.6 71.3 39 0 102.8-38.9 118-85.2l-.5 2.8C301 319 233 363.5 192.6 363.5c-24 0-101.7-27.9-116.4-83.8Z" fill="#000" fill-opacity=".2"/></g><g transform="translate(199.5 333.4) scale(.71856)"><path d="M60.7 22.9c0 16.9-14.8 30.5-33 30.5C9.2 53.4-5.6 39.8-5.6 23S-1 8 27.6 8c34 0 33-2 33 14.8Z" fill="#DE8383"/><path fill-rule="evenodd" clip-rule="evenodd" d="M55.1 8.7c-5 4.8-15.3 9-27.2 9A42 42 0 0 1 1 9.3C4 7.9 9.8 8 21.5 8a2115 2115 0 0 0 14.8 0c9.4 0 15.3 0 18.8.7Z" fill="#F9F9F9"/></g><g transform="translate(280.7 235.4) scale(.71856)"></g><g transform="matrix(-.71856 0 0 .71856 161.5 235.4)"></g><g transform="translate(114.8 215.5) scale(.71856)"><path d="M55.3 43.2A59.1 59.1 0 0 1 87.4 34c17.8 0 34.4 7.7 32.2 9.2 0 17.8-3.3 0-31.2 0-30 0-33.1 17.8-33.1 0ZM169.3 43.2a59.1 59.1 0 0 1 32.1-9.2c17.8 0 34.4 7.7 32.2 9.2 0 17.8-3.3 0-31.2 0-30 0-33.1 17.8-33.1 0Z" fill="#000"/><path d="m87.2 56.6 8.1 25h26.3l-21.2 15.5 8 25-21.2-15.4L66 122l8.2-25-21.3-15.4H79l8.1-25ZM201 56.6l8.1 25h26.3l-21.3 15.5 8.2 25-21.3-15.4-21.3 15.4 8.1-25-21.2-15.4h26.3l8-25Z" fill="#FFEBB7"/></g><g transform="translate(127.7 288.7) scale(.71856)"></g><g transform="translate(193 279.4) scale(.71856)"><path d="M33.4 22c-7.1 9.5-12 31.5-7.8 33.5 4.2 2.1 10.4 0 17 0" stroke="#000" stroke-opacity=".5" stroke-width="4" stroke-linecap="round" stroke-linejoin="round"/></g><g transform="matrix(.52237 0 0 .52237 122.9 244.8)"><path d="M11 103V7.5h40L11 103Z" fill="#2c1b18"/></g><g transform="matrix(-.52237 0 0 .52237 315.7 244.8)"><path d="M11 103V7.5h40L11 103Z" fill="#2c1b18"/></g><g transform="matrix(.52237 0 0 .52237 108.7 145.6)"><g fill="#2c1b18"><path d="M374 133c6.5 15.9 11.5 34.5 11.5 70-11 0-38.5 11-92.5-18-54.8-29.5-68.9-59.5-82-79-13 27-37 51.3-72.5 73.5C103 201.7 54.2 200.5 38 203c0-23.1 2-46 10.9-67.4A176 176 0 0 1 211 27a175 175 0 0 1 124 51.5c16.4 16.4 30.2 33.1 39 54.5Z"/><path d="M210 148c10.4-22.4 12-39.5 12-47.5-4.5-25-20.5-14-22-7.5s.5 17-1.5 43c-1.6 20.8-22.3 46-34 54a90.6 90.6 0 0 0 45.5-42Z"/></g></g></g></g></svg>