<svg xmlns="http://www.w3.org/2000/svg" viewBox="0 0 440 440" fill="none" shape-rendering="auto"><metadata xmlns:rdf="http://www.w3.org/1999/02/22-rdf-syntax-ns#" xmlns:xsi="http://www.w3.org/2001/XMLSchema-instance" xmlns:dc="http://purl.org/dc/elements/1.1/" xmlns:dcterms="http://purl.org/dc/terms/"><rdf:RDF><rdf:Description><dc:title>Face Generator</dc:title><dc:creator>The Visual Team</dc:creator><dc:source xsi:type="dcterms:URI">https://www.figma.com/community/file/986078800058673824</dc:source><dcterms:license xsi:type="dcterms:URI">https://creativecommons.org/licenses/by/4.0/</dcterms:license><dc:rights>Remix of „Face Generator” (https://www.figma.com/community/file/986078800058673824) by „The Visual Team”, licensed under „CC BY 4.0” (https://creativecommons.org/licenses/by/4.0/)</dc:rights></rdf:Description></rdf:RDF></metadata><mask id="viewboxMask"><rect width="440" height="440" rx="0" ry="0" x="0" y="0" fill="#fff" /></mask><g mask="url(#viewboxMask)"><rect fill="#b6e3f4" width="440" height="440" x="0" y="0" /><g transform="scale(-1 1) translate(-440 0)"><g transform="matrix(.71048 0 0 .71048 24 2)"><path d="M41.6 296.4c-5.7 42.1 30.8 58.1 63.3 60-7.7 18.8 9.6 62 47.2 69.8 37.7 7.7 66.2-26.5 75.8-44.5 2.5 16.2 19.2 51 65.5 60.1 46.4 9.1 59.8-61.6 62.1-85.5 29 21 69 49.2 115.5 25.4 26.5-13.6 14-58.3 0-71 16.1-9.8 46.7-37.5 40-69.7-6.5-32.2-52.3-38.3-74.4-37.3 15.3-13 40-45.6 16.6-71.5-23.5-26-59.9-10.9-75.1 0 4.8-16.9 1.8-50.2-45.9-63.2-27.7-7.5-68 19.9-71.9 36.1-10.8-17-41.6-44.5-74.7-32.5-33 12-38.6 45.4-33.3 66.2-13.1-4-47.4-6.6-68.2 23.7-21 30.3 6.1 65.3 20.8 78.5-17.6 2-58.7 21.8-63.3 55.4Z" fill="#b58143"/></g><g transform="translate(81.7 150.7) scale(.71856)"><ellipse cx="190" cy="198.5" rx="132" ry="152.5" fill="#f8b788"/><path d="M322 192.4c-2.6 81.6-60.7 146.8-132 146.8-71.2 0-129.3-65.2-132-146.8v5.9c0 84.2 59.1 152.6 132 152.6 73 0 132.1-68.4 132.1-152.6v-5.9Z" fill="#000" fill-opacity=".2"/></g><g transform="translate(199.5 333.4) scale(.71856)"><path d="M59 19.1a31 31 0 0 1-31.5 30.6A31 31 0 0 1-3.9 19.1c0-17 4.2-14.9 31.4-14.9 25.2 0 31.5-2 31.5 15Z" fill="#DE8383"/><path fill-rule="evenodd" clip-rule="evenodd" d="M58.8 17.7H-4c.2-14.1 4.1-14 23.5-14l8 .1h7.2c18.4-.2 23.7-.2 24 14Z" fill="#F9F9F9"/><path fill-rule="evenodd" clip-rule="evenodd" d="M53.8 35.7A31.7 31.7 0 0 1 27.7 49c-11 0-20.8-5.5-26.4-13.8a42.7 42.7 0 0 1 26-7.6 42 42 0 0 1 26.5 8Z" fill="#C06E6E"/></g><g transform="translate(280.7 235.4) scale(.71856)"><rect x="22" y="19" width="88.1" height="88.1" rx="44.1" fill="#f8b788"/><path d="m79 38.5-39 29L83.5 87" stroke="#000" stroke-opacity=".2" stroke-width="5" stroke-linecap="round" stroke-linejoin="round"/></g><g transform="matrix(-.71856 0 0 .71856 161.5 235.4)"><rect x="22" y="19" width="88.1" height="88.1" rx="44.1" fill="#f8b788"/><path d="m79 38.5-39 29L83.5 87" stroke="#000" stroke-opacity=".2" stroke-width="5" stroke-linecap="round" stroke-linejoin="round"/></g><g transform="translate(114.8 215.5) scale(.71856)"><path d="M75 52.4c3.6-2.8 9-8.4 19.7-8.4 9 0 16.7 6.2 18 8.4M179.6 52.4c3.5-2.8 9-8.4 19.7-8.4 9 0 16.7 6.2 18 8.4" stroke="#000" stroke-width="4.2" stroke-linecap="round"/><rect x="72" y="60.4" width="49.4" height="60.4" rx="16.5" fill="#fff"/><rect x="173.6" y="60.4" width="49.4" height="60.4" rx="16.5" fill="#fff"/><rect x="81.4" y="68.8" width="30.2" height="46.7" rx="15.1" fill="#757575"/><rect x="182.9" y="68.8" width="30.2" height="46.7" rx="15.1" fill="#757575"/><rect x="88.5" y="78.4" width="16.5" height="26" rx="8.3" fill="#000"/><rect x="190" y="78.4" width="16.5" height="26" rx="8.3" fill="#000"/></g><g transform="translate(127.7 288.7) scale(.71856)"><g fill="#FFC6C6"><rect x="11" y="16" width="56.3" height="43.4" rx="21.7"/><rect x="191" y="16" width="56.3" height="43.4" rx="21.7"/></g></g><g transform="translate(193 279.4) scale(.71856)"><path d="M18.6 38.3A10 10 0 0 0 29 45a10 10 0 0 0 19.4 0h.9a10 10 0 0 0 9.5-6.7 10 10 0 0 1-10.4 13.4 10 10 0 0 1-19.4 0H28a10 10 0 0 1-9.5-13.4Z" fill="#000" fill-opacity=".2"/></g><g transform="matrix(.52237 0 0 .52237 122.9 244.8)"><path d="M52 8H11v96h41V8Z" fill="#b58143"/></g><g transform="matrix(-.52237 0 0 .52237 315.7 244.8)"><path d="M52 8H11v96h41V8Z" fill="#b58143"/></g><g transform="matrix(.52237 0 0 .52237 108.7 145.6)"><g fill="#b58143"><path d="M374 131c6.5 15.9 11.5 34.5 11.5 70-11 0-38.5 11-92.5-18-54.8-29.5-68.9-59.5-82-79-13 27-37 51.3-72.5 73.5C103 199.7 54.2 198.5 38 201c0-23.1 2-46 10.9-67.4A176 176 0 0 1 211 25a175 175 0 0 1 124 51.5c16.4 16.4 30.2 33.1 39 54.5Z"/><path d="M302 77c-11.6-28.6-41.2-46.3-87-39.6-30.2 3.7-48.3 24.3-67.4 39.6-19.2 15.3-44.3 49.6-24.2 83.5 20.1 33.8 163.5 72.5 212.8 6.7 26.6-35.6-22.6-61.6-34.2-90.2Z"/></g></g></g></g></svg>