<svg
  width="230"
  height="500"
  viewBox="0 0 634 1212"
  fill="none"
  xmlns="http://www.w3.org/2000/svg"
>
  <path
    d="M161.894 206.894C188.066 199.246 210.095 136.408 214.631 107.927C220.137
    73.3587 225.722 33.0125 192.545 8.69199C159.369 -15.6285 130.092 19.4869
    120.774 54.1786C109.116 82.7338 110.794 157.784 134 191.926C133.857 207.585
    133.836 222.98 133.943 238.124C131.25 233.825 128.652 230.02 126.287 226.889C105.189
    198.954 79.9825 166.955 39.4574 174.002C-1.0678 181.048 3.94633 226.494 22.49
    257.263C35.6292 286.906 96.0105 341.55 137.061 343.95C139.205 383.38 142.47 421.06
    146.979 457.265C137.923 442.273 127.63 428.704 119.875 420.482C95.8543 395.015
    67.3058 365.959 27.7924 377.386C-11.721 388.814 -1.77664 433.441 20.0143
    462.003C37.6234 492.294 113.251 545.583 152.764 534.155C154.898 533.538 156.776
    532.73 158.415 531.75C163.585 559.765 169.644 586.926 176.658 613.383C170.581 606.826
    164.754 601.229 159.911 597.19C133.024 574.771 101.213 549.327 63.346 565.387C25.4787
    581.447 40.6762 624.57 65.7187 650.328C86.8156 678.302 168.26 722.19 206.127
    706.13L206.237 706.083C207.807 710.254 209.407 714.41 211.035 718.552C219.72
    740.642 229.224 762.313 239.589 783.677C233.626 779.716 228.075 776.413 223.42
    774.013C192.305 757.97 155.726 740.045 122.254 763.948C88.7814 787.852 112.985
    826.644 143.025 846.347C168.81 868.316 252.884 892.548 288.687 872.533C307.734
    903.181 328.791 933.492 351.989 963.819C345.202 961.18 338.966 959.11 333.83
    957.748C299.992 948.777 260.414 939.142 232.871 969.689C205.328 1000.24 237.312
    1032.91 270.888 1045.69C300.037 1061.19 383.718 1066.88 416.327 1041.93C437.521
    1066 460.108 1090.26 484.152 1114.9C481.001 1114 478.157 1113.22 475.701
    1112.57C441.863 1103.6 402.285 1093.96 374.742 1124.51C347.199 1155.06 379.183 1187.73
    412.759 1200.51C443.694 1216.96 561.857 1215.95 589.4 1185.4C590.281 1184.43 591.024
    1183.45 591.636 1182.47C614.569 1167.39 629.823 1109.14 632.034 1082.18C634.896 1047.3
    637.398 1006.64 602.469 984.914C567.54 963.185 541.018 1000.42 534.363 1035.72C527.999
    1055.49 529.264 1095.82 538.625 1129.91C504.164 1096 472.565 1063.02 443.635
    1030.54C469.957 1022.9 487.76 956.656 490.163 927.365C493.026 892.477 495.527 851.823
    460.598 830.094C425.67 808.366 399.147 845.605 392.493 880.905C386.095 900.774 387.407
    941.412 396.899 975.613C367.793 939.667 341.902 904.027 318.955 868.07C345.324 861.159
    374.395 804.719 382.63 777.981C392.933 744.527 404.125 705.365 374.69 676.63C345.255
    647.894 311.339 678.553 297.244 711.593C286.874 729.355 279.475 768.419 281.088
    803.466C264.606 772.639 250.104 741.324 237.416 709.149C264.43 703.362 301.386 658.604
    314.46 635.654C331.786 605.239 351.22 569.444 328.731 535.001C306.241 500.558 266.473
    523.115 245.535 552.303C232.395 566.48 217.727 599.595 210.995 632.219C202.231 602.519
    194.762 571.885 188.494 540.058C215.861 533.697 253.945 497.08 268.734 477.108C289.565
    448.978 313.131 415.758 294.912 378.878C276.692 341.999 234.516 359.65 210.245
    386.131C198.392 396.191 184.097 418.294 173.453 442.993C170 413.385 167.365 382.707
    165.487 350.793C189.741 364.749 247.487 321.669 268.078 299.422C291.855 273.734
    318.907 243.285 304.821 204.638C290.735 165.99 246.884 178.933 219.868 202.606C201.61
    214.947 175.833 250.805 162.725 285.33C162.05 259.973 161.781 233.851 161.894
    206.894Z"
    fill="url(#paint0_linear_0_99)"
  />
  <defs>
    <linearGradient
      id="paint0_linear_0_99"
      x1="1013.7"
      y1="610.657"
      x2="146.961"
      y2="-9.35913"
      gradientUnits="userSpaceOnUse"
    >
      <stop stopColor="#4D8EFB" />
      <stop offset="1" stopColor="#3833A6" />
    </linearGradient>
  </defs>
</svg>